M48
;DRILL file {KiCad (2015-07-09 BZR 5913, Git 33e1797)-product} date 12/08/2015 14:46:12
;FORMAT={-:-/ absolute / metric / decimal}
FMAT,2
METRIC,TZ
T1C0.635
T2C0.800
T3C0.813
T4C1.000
T5C1.001
T6C3.250
%
G90
G05
M71
T1
X69.602Y-13.538
X69.602Y-31.953
X69.729Y-50.368
X90.585Y17.61
X95.665Y47.455
X97.923Y-13.538
X98.05Y-31.953
X98.05Y-50.368
X102.368Y35.611
X103.638Y32.944
X104.4Y29.515
X106.432Y42.469
X106.432Y39.294
X107.067Y36.246
X109.074Y40.92
X109.074Y37.77
X109.124Y34.62
X109.175Y44.12
X112.274Y-55.258
X114.814Y-54.559
X117.354Y-53.67
X117.735Y40.818
X118.878Y37.77
X119.894Y32.182
X123.577Y2.083
X124.212Y-1.981
X125.926Y-0.647
X125.99Y0.622
X127.006Y-13.665
X127.006Y-32.08
X127.006Y-49.86
X127.387Y3.988
X145.103Y1.956
X148.088Y0.178
X149.548Y-1.6
T2
X78.52Y25.23
X78.52Y20.15
X82.33Y17.61
X82.33Y9.99
X88.68Y41.105
X88.68Y33.485
X88.68Y29.675
X88.68Y22.055
X91.22Y29.675
X91.22Y22.055
X106.305Y18.72
X106.305Y11.1
X108.845Y18.72
X108.845Y11.1
X111.385Y18.72
X111.385Y11.1
X113.925Y18.72
X113.925Y11.1
T3
X72.904Y4.242
X72.904Y-3.378
X72.904Y-13.538
X72.904Y-21.158
X72.904Y-31.953
X72.904Y-39.573
X72.904Y-50.368
X72.904Y-57.988
X75.444Y4.242
X75.444Y-3.378
X75.444Y-13.538
X75.444Y-21.158
X75.444Y-31.953
X75.444Y-39.573
X75.444Y-50.368
X75.444Y-57.988
X77.984Y4.242
X77.984Y-3.378
X77.984Y-13.538
X77.984Y-21.158
X77.984Y-31.953
X77.984Y-39.573
X77.984Y-50.368
X77.984Y-57.988
X80.524Y4.242
X80.524Y-3.378
X80.524Y-13.538
X80.524Y-21.158
X80.524Y-31.953
X80.524Y-39.573
X80.524Y-50.368
X80.524Y-57.988
X83.064Y4.242
X83.064Y-3.378
X83.064Y-13.538
X83.064Y-21.158
X83.064Y-31.953
X83.064Y-39.573
X83.064Y-50.368
X83.064Y-57.988
X85.505Y45.55
X85.505Y43.01
X85.505Y40.47
X85.505Y37.93
X85.505Y35.39
X85.505Y32.85
X85.505Y30.31
X85.505Y27.77
X85.505Y25.23
X85.505Y22.69
X85.505Y20.15
X85.505Y17.61
X85.505Y15.07
X85.505Y12.53
X85.505Y9.99
X85.604Y4.242
X85.604Y-3.378
X85.604Y-13.538
X85.604Y-21.158
X85.604Y-31.953
X85.604Y-39.573
X85.604Y-50.368
X85.604Y-57.988
X88.144Y4.242
X88.144Y-3.378
X88.144Y-13.538
X88.144Y-21.158
X88.144Y-31.953
X88.144Y-39.573
X88.144Y-50.368
X88.144Y-57.988
X90.684Y4.242
X90.684Y-3.378
X90.684Y-13.538
X90.684Y-21.158
X90.684Y-31.953
X90.684Y-39.573
X90.684Y-50.368
X90.684Y-57.988
X100.11Y45.55
X100.11Y43.01
X100.11Y40.47
X100.11Y37.93
X100.11Y35.39
X100.11Y32.85
X100.11Y30.31
X100.11Y27.77
X100.11Y25.23
X100.11Y22.69
X100.11Y20.15
X100.11Y17.61
X100.11Y15.07
X100.11Y12.53
X100.11Y9.99
X102.114Y4.242
X102.114Y-3.378
X102.114Y-13.538
X102.114Y-21.158
X102.114Y-31.953
X102.114Y-39.573
X102.114Y-50.368
X102.114Y-57.988
X104.654Y4.242
X104.654Y-3.378
X104.654Y-13.538
X104.654Y-21.158
X104.654Y-31.953
X104.654Y-39.573
X104.654Y-50.368
X104.654Y-57.988
X106.305Y24.435
X106.305Y21.895
X107.194Y4.242
X107.194Y-3.378
X107.194Y-13.538
X107.194Y-21.158
X107.194Y-31.953
X107.194Y-39.573
X107.194Y-50.368
X107.194Y-57.988
X108.845Y28.245
X108.845Y25.705
X109.734Y4.242
X109.734Y-3.378
X109.734Y-13.538
X109.734Y-21.158
X109.734Y-31.953
X109.734Y-39.573
X109.734Y-50.368
X109.734Y-57.988
X111.385Y24.435
X111.385Y21.895
X112.274Y4.242
X112.274Y-3.378
X112.274Y-13.538
X112.274Y-21.158
X112.274Y-31.953
X112.274Y-39.573
X112.274Y-50.368
X112.274Y-57.988
X114.052Y28.118
X114.052Y25.578
X114.814Y4.242
X114.814Y-3.378
X114.814Y-13.538
X114.814Y-21.158
X114.814Y-31.953
X114.814Y-39.573
X114.814Y-50.368
X114.814Y-57.988
X117.354Y4.242
X117.354Y-3.378
X117.354Y-13.538
X117.354Y-21.158
X117.354Y-31.953
X117.354Y-39.573
X117.354Y-50.368
X117.354Y-57.988
X119.894Y4.242
X119.894Y-3.378
X119.894Y-13.538
X119.894Y-21.158
X119.894Y-31.953
X119.894Y-39.573
X119.894Y-50.368
X119.894Y-57.988
X131.07Y4.115
X131.07Y-3.505
X131.07Y-13.665
X131.07Y-21.285
X131.07Y-32.08
X131.07Y-39.7
X131.07Y-49.86
X131.07Y-57.48
X133.61Y4.115
X133.61Y-3.505
X133.61Y-13.665
X133.61Y-21.285
X133.61Y-32.08
X133.61Y-39.7
X133.61Y-49.86
X133.61Y-57.48
X136.15Y4.115
X136.15Y-3.505
X136.15Y-13.665
X136.15Y-21.285
X136.15Y-32.08
X136.15Y-39.7
X136.15Y-49.86
X136.15Y-57.48
X138.69Y4.115
X138.69Y-3.505
X138.69Y-13.665
X138.69Y-21.285
X138.69Y-32.08
X138.69Y-39.7
X138.69Y-49.86
X138.69Y-57.48
X141.23Y4.115
X141.23Y-3.505
X141.23Y-13.665
X141.23Y-21.285
X141.23Y-32.08
X141.23Y-39.7
X141.23Y-49.86
X141.23Y-57.48
X143.77Y4.115
X143.77Y-3.505
X143.77Y-13.665
X143.77Y-21.285
X143.77Y-32.08
X143.77Y-39.7
X143.77Y-49.86
X143.77Y-57.48
X146.31Y4.115
X146.31Y-3.505
X146.31Y-13.665
X146.31Y-21.285
X146.31Y-32.08
X146.31Y-39.7
X146.31Y-49.86
X146.31Y-57.48
X148.85Y4.115
X148.85Y-3.505
X148.85Y-13.665
X148.85Y-21.285
X148.85Y-32.08
X148.85Y-39.7
X148.85Y-49.86
X148.85Y-57.48
T4
X122.365Y48.335
X122.365Y8.335
X140.365Y48.335
X140.365Y8.335
T5
X71.38Y38.405
X71.38Y35.865
X71.38Y33.325
X71.38Y30.785
X75.825Y14.91
X75.825Y9.83
X79.635Y40.945
X79.635Y38.405
X79.635Y35.865
X79.635Y33.325
X79.635Y30.785
X80.524Y-7.823
X80.524Y-26.238
X80.524Y-44.653
X83.064Y-7.823
X83.064Y-26.238
X83.064Y-44.653
X83.064Y-63.068
X85.604Y-7.823
X85.604Y-26.238
X85.604Y-44.653
X85.604Y-63.068
X88.144Y-7.823
X88.144Y-26.238
X88.144Y-44.653
X88.144Y-63.068
X90.684Y-7.823
X90.684Y-26.238
X90.684Y-44.653
X90.684Y-63.068
X93.224Y-63.068
X105.67Y47.93
X108.21Y47.93
X109.734Y-7.823
X109.734Y-26.238
X109.734Y-44.653
X109.734Y-63.068
X112.274Y-7.823
X112.274Y-26.238
X112.274Y-44.653
X112.274Y-63.068
X113.29Y47.93
X114.814Y-7.823
X114.814Y-26.238
X114.814Y-44.653
X114.814Y-63.068
X115.83Y47.93
X117.354Y-7.823
X117.354Y-26.238
X117.354Y-44.653
X117.354Y-63.068
X119.894Y-7.823
X119.894Y-26.238
X119.894Y-44.653
X119.894Y-63.068
X131.07Y-63.195
X133.61Y-63.195
X136.15Y-63.195
X138.69Y-63.195
X138.944Y-7.823
X138.944Y-26.873
X138.944Y-44.653
X141.23Y-63.195
X141.484Y-7.823
X141.484Y-26.873
X141.484Y-44.653
X144.024Y-7.823
X144.024Y-26.873
X144.024Y-44.653
X146.465Y37.93
X146.465Y32.85
X146.465Y24.595
X146.465Y19.515
X146.564Y-7.823
X146.564Y-26.873
X146.564Y-44.653
X149.104Y-7.823
X149.104Y-26.873
X149.104Y-44.653
T6
X73.205Y46.105
X73.205Y-63.895
X123.865Y12.835
X138.865Y43.835
X148.205Y46.105
X148.205Y-63.895
T0
M30
