G04 #@! TF.FileFunction,Legend,Top*
%FSLAX46Y46*%
G04 Gerber Fmt 4.6, Leading zero omitted, Abs format (unit mm)*
G04 Created by KiCad (PCBNEW (2015-07-09 BZR 5913, Git 33e1797)-product) date 12/08/2015 14:46:09*
%MOMM*%
G01*
G04 APERTURE LIST*
%ADD10C,0.150000*%
%ADD11C,0.304800*%
%ADD12C,0.250000*%
%ADD13C,0.508000*%
%ADD14C,0.635000*%
%ADD15C,0.254000*%
%ADD16C,0.152400*%
%ADD17C,0.381000*%
%ADD18C,0.200000*%
%ADD19C,0.300000*%
%ADD20C,0.203200*%
%ADD21C,0.088900*%
%ADD22C,0.271780*%
%ADD23C,0.285750*%
G04 APERTURE END LIST*
D10*
D11*
X123955762Y-6964503D02*
X125987762Y-6964503D01*
X125987762Y-7327360D01*
X125891000Y-7545075D01*
X125697476Y-7690217D01*
X125503952Y-7762789D01*
X125116905Y-7835360D01*
X124826619Y-7835360D01*
X124439571Y-7762789D01*
X124246048Y-7690217D01*
X124052524Y-7545075D01*
X123955762Y-7327360D01*
X123955762Y-6964503D01*
X124052524Y-9069075D02*
X123955762Y-8923932D01*
X123955762Y-8633646D01*
X124052524Y-8488503D01*
X124246048Y-8415932D01*
X125020143Y-8415932D01*
X125213667Y-8488503D01*
X125310429Y-8633646D01*
X125310429Y-8923932D01*
X125213667Y-9069075D01*
X125020143Y-9141646D01*
X124826619Y-9141646D01*
X124633095Y-8415932D01*
X124052524Y-9722218D02*
X123955762Y-9867361D01*
X123955762Y-10157646D01*
X124052524Y-10302789D01*
X124246048Y-10375361D01*
X124342810Y-10375361D01*
X124536333Y-10302789D01*
X124633095Y-10157646D01*
X124633095Y-9939932D01*
X124729857Y-9794789D01*
X124923381Y-9722218D01*
X125020143Y-9722218D01*
X125213667Y-9794789D01*
X125310429Y-9939932D01*
X125310429Y-10157646D01*
X125213667Y-10302789D01*
X123955762Y-11028503D02*
X125310429Y-11028503D01*
X125987762Y-11028503D02*
X125891000Y-10955932D01*
X125794238Y-11028503D01*
X125891000Y-11101075D01*
X125987762Y-11028503D01*
X125794238Y-11028503D01*
X125310429Y-12407360D02*
X123665476Y-12407360D01*
X123471952Y-12334789D01*
X123375190Y-12262217D01*
X123278429Y-12117074D01*
X123278429Y-11899360D01*
X123375190Y-11754217D01*
X124052524Y-12407360D02*
X123955762Y-12262217D01*
X123955762Y-11971931D01*
X124052524Y-11826789D01*
X124149286Y-11754217D01*
X124342810Y-11681646D01*
X124923381Y-11681646D01*
X125116905Y-11754217D01*
X125213667Y-11826789D01*
X125310429Y-11971931D01*
X125310429Y-12262217D01*
X125213667Y-12407360D01*
X125310429Y-13133074D02*
X123955762Y-13133074D01*
X125116905Y-13133074D02*
X125213667Y-13205646D01*
X125310429Y-13350788D01*
X125310429Y-13568503D01*
X125213667Y-13713646D01*
X125020143Y-13786217D01*
X123955762Y-13786217D01*
X123955762Y-15673074D02*
X125987762Y-15673074D01*
X125213667Y-15673074D02*
X125310429Y-15818217D01*
X125310429Y-16108503D01*
X125213667Y-16253646D01*
X125116905Y-16326217D01*
X124923381Y-16398788D01*
X124342810Y-16398788D01*
X124149286Y-16326217D01*
X124052524Y-16253646D01*
X123955762Y-16108503D01*
X123955762Y-15818217D01*
X124052524Y-15673074D01*
X125310429Y-16906788D02*
X123955762Y-17269645D01*
X125310429Y-17632503D02*
X123955762Y-17269645D01*
X123471952Y-17124503D01*
X123375190Y-17051931D01*
X123278429Y-16906788D01*
X124149286Y-18213074D02*
X124052524Y-18285646D01*
X123955762Y-18213074D01*
X124052524Y-18140503D01*
X124149286Y-18213074D01*
X123955762Y-18213074D01*
X125213667Y-18213074D02*
X125116905Y-18285646D01*
X125020143Y-18213074D01*
X125116905Y-18140503D01*
X125213667Y-18213074D01*
X125020143Y-18213074D01*
X125310429Y-19954788D02*
X123955762Y-20245074D01*
X124923381Y-20535360D01*
X123955762Y-20825645D01*
X125310429Y-21115931D01*
X125310429Y-21551359D02*
X123955762Y-21841645D01*
X124923381Y-22131931D01*
X123955762Y-22422216D01*
X125310429Y-22712502D01*
X125310429Y-23147930D02*
X123955762Y-23438216D01*
X124923381Y-23728502D01*
X123955762Y-24018787D01*
X125310429Y-24309073D01*
X124149286Y-24889644D02*
X124052524Y-24962216D01*
X123955762Y-24889644D01*
X124052524Y-24817073D01*
X124149286Y-24889644D01*
X123955762Y-24889644D01*
X123955762Y-26486215D02*
X124923381Y-25978215D01*
X123955762Y-25615358D02*
X125987762Y-25615358D01*
X125987762Y-26195930D01*
X125891000Y-26341072D01*
X125794238Y-26413644D01*
X125600714Y-26486215D01*
X125310429Y-26486215D01*
X125116905Y-26413644D01*
X125020143Y-26341072D01*
X124923381Y-26195930D01*
X124923381Y-25615358D01*
X125020143Y-27139358D02*
X125020143Y-27647358D01*
X123955762Y-27865072D02*
X123955762Y-27139358D01*
X125987762Y-27139358D01*
X125987762Y-27865072D01*
X124729857Y-28518215D02*
X124729857Y-29679358D01*
X123955762Y-30405072D02*
X125987762Y-30405072D01*
X123955762Y-31130786D02*
X125987762Y-31130786D01*
X123955762Y-32001643D01*
X125987762Y-32001643D01*
X123955762Y-32727357D02*
X125987762Y-32727357D01*
X123955762Y-33598214D01*
X125987762Y-33598214D01*
X125987762Y-34614214D02*
X125987762Y-34904500D01*
X125891000Y-35049642D01*
X125697476Y-35194785D01*
X125310429Y-35267357D01*
X124633095Y-35267357D01*
X124246048Y-35194785D01*
X124052524Y-35049642D01*
X123955762Y-34904500D01*
X123955762Y-34614214D01*
X124052524Y-34469071D01*
X124246048Y-34323928D01*
X124633095Y-34251357D01*
X125310429Y-34251357D01*
X125697476Y-34323928D01*
X125891000Y-34469071D01*
X125987762Y-34614214D01*
X125987762Y-35702785D02*
X123955762Y-36210785D01*
X125987762Y-36718785D01*
X124536333Y-37154214D02*
X124536333Y-37879928D01*
X123955762Y-37009071D02*
X125987762Y-37517071D01*
X123955762Y-38025071D01*
X125987762Y-38315357D02*
X125987762Y-39186214D01*
X123955762Y-38750785D02*
X125987762Y-38750785D01*
X123955762Y-39694214D02*
X125987762Y-39694214D01*
X125987762Y-40710214D02*
X125987762Y-41000500D01*
X125891000Y-41145642D01*
X125697476Y-41290785D01*
X125310429Y-41363357D01*
X124633095Y-41363357D01*
X124246048Y-41290785D01*
X124052524Y-41145642D01*
X123955762Y-41000500D01*
X123955762Y-40710214D01*
X124052524Y-40565071D01*
X124246048Y-40419928D01*
X124633095Y-40347357D01*
X125310429Y-40347357D01*
X125697476Y-40419928D01*
X125891000Y-40565071D01*
X125987762Y-40710214D01*
X123955762Y-42016499D02*
X125987762Y-42016499D01*
X123955762Y-42887356D01*
X125987762Y-42887356D01*
X124149286Y-43613070D02*
X124052524Y-43685642D01*
X123955762Y-43613070D01*
X124052524Y-43540499D01*
X124149286Y-43613070D01*
X123955762Y-43613070D01*
X124052524Y-44991927D02*
X123955762Y-44846784D01*
X123955762Y-44556498D01*
X124052524Y-44411356D01*
X124149286Y-44338784D01*
X124342810Y-44266213D01*
X124923381Y-44266213D01*
X125116905Y-44338784D01*
X125213667Y-44411356D01*
X125310429Y-44556498D01*
X125310429Y-44846784D01*
X125213667Y-44991927D01*
X123955762Y-45862784D02*
X124052524Y-45717642D01*
X124149286Y-45645070D01*
X124342810Y-45572499D01*
X124923381Y-45572499D01*
X125116905Y-45645070D01*
X125213667Y-45717642D01*
X125310429Y-45862784D01*
X125310429Y-46080499D01*
X125213667Y-46225642D01*
X125116905Y-46298213D01*
X124923381Y-46370784D01*
X124342810Y-46370784D01*
X124149286Y-46298213D01*
X124052524Y-46225642D01*
X123955762Y-46080499D01*
X123955762Y-45862784D01*
X124149286Y-47023927D02*
X124052524Y-47096499D01*
X123955762Y-47023927D01*
X124052524Y-46951356D01*
X124149286Y-47023927D01*
X123955762Y-47023927D01*
X125310429Y-48402784D02*
X123955762Y-48402784D01*
X125310429Y-47749641D02*
X124246048Y-47749641D01*
X124052524Y-47822213D01*
X123955762Y-47967355D01*
X123955762Y-48185070D01*
X124052524Y-48330213D01*
X124149286Y-48402784D01*
X123955762Y-49128498D02*
X125987762Y-49128498D01*
X124729857Y-49273641D02*
X123955762Y-49709070D01*
X125310429Y-49709070D02*
X124536333Y-49128498D01*
D12*
X110456858Y43634143D02*
X110456858Y42777000D01*
X110409238Y42605571D01*
X110314000Y42491286D01*
X110171143Y42434143D01*
X110075905Y42434143D01*
X111075905Y42434143D02*
X110980667Y42491286D01*
X110933048Y42548429D01*
X110885429Y42662714D01*
X110885429Y43005571D01*
X110933048Y43119857D01*
X110980667Y43177000D01*
X111075905Y43234143D01*
X111218763Y43234143D01*
X111314001Y43177000D01*
X111361620Y43119857D01*
X111409239Y43005571D01*
X111409239Y42662714D01*
X111361620Y42548429D01*
X111314001Y42491286D01*
X111218763Y42434143D01*
X111075905Y42434143D01*
X111837810Y42434143D02*
X111837810Y43234143D01*
X111837810Y43634143D02*
X111790191Y43577000D01*
X111837810Y43519857D01*
X111885429Y43577000D01*
X111837810Y43634143D01*
X111837810Y43519857D01*
X112314000Y43234143D02*
X112314000Y42434143D01*
X112314000Y43119857D02*
X112361619Y43177000D01*
X112456857Y43234143D01*
X112599715Y43234143D01*
X112694953Y43177000D01*
X112742572Y43062714D01*
X112742572Y42434143D01*
X113885429Y42434143D02*
X114409239Y43234143D01*
X113885429Y43234143D02*
X114409239Y42434143D01*
X114790191Y42891286D02*
X115552096Y42891286D01*
X116028286Y42891286D02*
X116790191Y42891286D01*
X118552096Y42434143D02*
X117980667Y42434143D01*
X118266381Y42434143D02*
X118266381Y43634143D01*
X118171143Y43462714D01*
X118075905Y43348429D01*
X117980667Y43291286D01*
X118933048Y43519857D02*
X118980667Y43577000D01*
X119075905Y43634143D01*
X119314001Y43634143D01*
X119409239Y43577000D01*
X119456858Y43519857D01*
X119504477Y43405571D01*
X119504477Y43291286D01*
X119456858Y43119857D01*
X118885429Y42434143D01*
X119504477Y42434143D01*
X110052096Y40078143D02*
X110052096Y39221000D01*
X110004476Y39049571D01*
X109909238Y38935286D01*
X109766381Y38878143D01*
X109671143Y38878143D01*
X110671143Y38878143D02*
X110575905Y38935286D01*
X110528286Y38992429D01*
X110480667Y39106714D01*
X110480667Y39449571D01*
X110528286Y39563857D01*
X110575905Y39621000D01*
X110671143Y39678143D01*
X110814001Y39678143D01*
X110909239Y39621000D01*
X110956858Y39563857D01*
X111004477Y39449571D01*
X111004477Y39106714D01*
X110956858Y38992429D01*
X110909239Y38935286D01*
X110814001Y38878143D01*
X110671143Y38878143D01*
X111433048Y38878143D02*
X111433048Y39678143D01*
X111433048Y40078143D02*
X111385429Y40021000D01*
X111433048Y39963857D01*
X111480667Y40021000D01*
X111433048Y40078143D01*
X111433048Y39963857D01*
X111909238Y39678143D02*
X111909238Y38878143D01*
X111909238Y39563857D02*
X111956857Y39621000D01*
X112052095Y39678143D01*
X112194953Y39678143D01*
X112290191Y39621000D01*
X112337810Y39506714D01*
X112337810Y38878143D01*
X113575905Y39335286D02*
X114337810Y39335286D01*
X114814000Y39335286D02*
X115575905Y39335286D01*
X115956857Y38878143D02*
X116480667Y39678143D01*
X115956857Y39678143D02*
X116480667Y38878143D01*
X117575905Y39963857D02*
X117623524Y40021000D01*
X117718762Y40078143D01*
X117956858Y40078143D01*
X118052096Y40021000D01*
X118099715Y39963857D01*
X118147334Y39849571D01*
X118147334Y39735286D01*
X118099715Y39563857D01*
X117528286Y38878143D01*
X118147334Y38878143D01*
X118480667Y38878143D02*
X119004477Y39678143D01*
X118480667Y39678143D02*
X119004477Y38878143D01*
X119814001Y40078143D02*
X119623524Y40078143D01*
X119528286Y40021000D01*
X119480667Y39963857D01*
X119385429Y39792429D01*
X119337810Y39563857D01*
X119337810Y39106714D01*
X119385429Y38992429D01*
X119433048Y38935286D01*
X119528286Y38878143D01*
X119718763Y38878143D01*
X119814001Y38935286D01*
X119861620Y38992429D01*
X119909239Y39106714D01*
X119909239Y39392429D01*
X119861620Y39506714D01*
X119814001Y39563857D01*
X119718763Y39621000D01*
X119528286Y39621000D01*
X119433048Y39563857D01*
X119385429Y39506714D01*
X119337810Y39392429D01*
D13*
X116626048Y9418502D02*
X118440333Y9418502D01*
X118803190Y9321740D01*
X119045095Y9128216D01*
X119166048Y8837931D01*
X119166048Y8644407D01*
X119166048Y10676406D02*
X119045095Y10482882D01*
X118924143Y10386121D01*
X118682238Y10289359D01*
X117956524Y10289359D01*
X117714619Y10386121D01*
X117593667Y10482882D01*
X117472714Y10676406D01*
X117472714Y10966692D01*
X117593667Y11160216D01*
X117714619Y11256978D01*
X117956524Y11353740D01*
X118682238Y11353740D01*
X118924143Y11256978D01*
X119045095Y11160216D01*
X119166048Y10966692D01*
X119166048Y10676406D01*
X117835571Y14450120D02*
X117835571Y13772787D01*
X119166048Y13772787D02*
X116626048Y13772787D01*
X116626048Y14740406D01*
X119166048Y16385358D02*
X117835571Y16385358D01*
X117593667Y16288596D01*
X117472714Y16095072D01*
X117472714Y15708024D01*
X117593667Y15514501D01*
X119045095Y16385358D02*
X119166048Y16191834D01*
X119166048Y15708024D01*
X119045095Y15514501D01*
X118803190Y15417739D01*
X118561286Y15417739D01*
X118319381Y15514501D01*
X118198429Y15708024D01*
X118198429Y16191834D01*
X118077476Y16385358D01*
X119166048Y17352977D02*
X117472714Y17352977D01*
X116626048Y17352977D02*
X116747000Y17256215D01*
X116867952Y17352977D01*
X116747000Y17449738D01*
X116626048Y17352977D01*
X116867952Y17352977D01*
X119166048Y18320596D02*
X117472714Y18320596D01*
X117956524Y18320596D02*
X117714619Y18417357D01*
X117593667Y18514119D01*
X117472714Y18707643D01*
X117472714Y18901167D01*
X117472714Y19288215D02*
X117472714Y20062310D01*
X119166048Y19578501D02*
X116988905Y19578501D01*
X116747000Y19675262D01*
X116626048Y19868786D01*
X116626048Y20062310D01*
X119166048Y21610501D02*
X117835571Y21610501D01*
X117593667Y21513739D01*
X117472714Y21320215D01*
X117472714Y20933167D01*
X117593667Y20739644D01*
X119045095Y21610501D02*
X119166048Y21416977D01*
X119166048Y20933167D01*
X119045095Y20739644D01*
X118803190Y20642882D01*
X118561286Y20642882D01*
X118319381Y20739644D01*
X118198429Y20933167D01*
X118198429Y21416977D01*
X118077476Y21610501D01*
X119166048Y22384596D02*
X117472714Y23448977D01*
X117472714Y22384596D02*
X119166048Y23448977D01*
X119045095Y25674500D02*
X119166048Y25964785D01*
X119166048Y26448595D01*
X119045095Y26642119D01*
X118924143Y26738881D01*
X118682238Y26835642D01*
X118440333Y26835642D01*
X118198429Y26738881D01*
X118077476Y26642119D01*
X117956524Y26448595D01*
X117835571Y26061547D01*
X117714619Y25868023D01*
X117593667Y25771262D01*
X117351762Y25674500D01*
X117109857Y25674500D01*
X116867952Y25771262D01*
X116747000Y25868023D01*
X116626048Y26061547D01*
X116626048Y26545357D01*
X116747000Y26835642D01*
X117472714Y27416214D02*
X117472714Y28190309D01*
X116626048Y27706500D02*
X118803190Y27706500D01*
X119045095Y27803261D01*
X119166048Y27996785D01*
X119166048Y28190309D01*
X117472714Y29738500D02*
X119166048Y29738500D01*
X117472714Y28867643D02*
X118803190Y28867643D01*
X119045095Y28964404D01*
X119166048Y29157928D01*
X119166048Y29448214D01*
X119045095Y29641738D01*
X118924143Y29738500D01*
X119166048Y31576976D02*
X116626048Y31576976D01*
X119045095Y31576976D02*
X119166048Y31383452D01*
X119166048Y30996404D01*
X119045095Y30802880D01*
X118924143Y30706119D01*
X118682238Y30609357D01*
X117956524Y30609357D01*
X117714619Y30706119D01*
X117593667Y30802880D01*
X117472714Y30996404D01*
X117472714Y31383452D01*
X117593667Y31576976D01*
X119166048Y32544595D02*
X117472714Y32544595D01*
X116626048Y32544595D02*
X116747000Y32447833D01*
X116867952Y32544595D01*
X116747000Y32641356D01*
X116626048Y32544595D01*
X116867952Y32544595D01*
X119166048Y33802499D02*
X119045095Y33608975D01*
X118924143Y33512214D01*
X118682238Y33415452D01*
X117956524Y33415452D01*
X117714619Y33512214D01*
X117593667Y33608975D01*
X117472714Y33802499D01*
X117472714Y34092785D01*
X117593667Y34286309D01*
X117714619Y34383071D01*
X117956524Y34479833D01*
X118682238Y34479833D01*
X118924143Y34383071D01*
X119045095Y34286309D01*
X119166048Y34092785D01*
X119166048Y33802499D01*
D14*
X95782143Y-5113667D02*
X98830143Y-5113667D01*
X96653000Y-5960334D01*
X98830143Y-6807000D01*
X95782143Y-6807000D01*
X95782143Y-8379381D02*
X95927286Y-8137476D01*
X96072429Y-8016524D01*
X96362714Y-7895572D01*
X97233571Y-7895572D01*
X97523857Y-8016524D01*
X97669000Y-8137476D01*
X97814143Y-8379381D01*
X97814143Y-8742238D01*
X97669000Y-8984143D01*
X97523857Y-9105095D01*
X97233571Y-9226048D01*
X96362714Y-9226048D01*
X96072429Y-9105095D01*
X95927286Y-8984143D01*
X95782143Y-8742238D01*
X95782143Y-8379381D01*
X97814143Y-9951762D02*
X97814143Y-10919381D01*
X98830143Y-10314619D02*
X96217571Y-10314619D01*
X95927286Y-10435571D01*
X95782143Y-10677476D01*
X95782143Y-10919381D01*
X95782143Y-12128905D02*
X95927286Y-11887000D01*
X96072429Y-11766048D01*
X96362714Y-11645096D01*
X97233571Y-11645096D01*
X97523857Y-11766048D01*
X97669000Y-11887000D01*
X97814143Y-12128905D01*
X97814143Y-12491762D01*
X97669000Y-12733667D01*
X97523857Y-12854619D01*
X97233571Y-12975572D01*
X96362714Y-12975572D01*
X96072429Y-12854619D01*
X95927286Y-12733667D01*
X95782143Y-12491762D01*
X95782143Y-12128905D01*
X95782143Y-14064143D02*
X97814143Y-14064143D01*
X97233571Y-14064143D02*
X97523857Y-14185095D01*
X97669000Y-14306048D01*
X97814143Y-14547952D01*
X97814143Y-14789857D01*
X96072429Y-19023190D02*
X95927286Y-18902238D01*
X95782143Y-18539381D01*
X95782143Y-18297476D01*
X95927286Y-17934619D01*
X96217571Y-17692714D01*
X96507857Y-17571762D01*
X97088429Y-17450810D01*
X97523857Y-17450810D01*
X98104429Y-17571762D01*
X98394714Y-17692714D01*
X98685000Y-17934619D01*
X98830143Y-18297476D01*
X98830143Y-18539381D01*
X98685000Y-18902238D01*
X98539857Y-19023190D01*
X95782143Y-20474619D02*
X95927286Y-20232714D01*
X96072429Y-20111762D01*
X96362714Y-19990810D01*
X97233571Y-19990810D01*
X97523857Y-20111762D01*
X97669000Y-20232714D01*
X97814143Y-20474619D01*
X97814143Y-20837476D01*
X97669000Y-21079381D01*
X97523857Y-21200333D01*
X97233571Y-21321286D01*
X96362714Y-21321286D01*
X96072429Y-21200333D01*
X95927286Y-21079381D01*
X95782143Y-20837476D01*
X95782143Y-20474619D01*
X97814143Y-22409857D02*
X95782143Y-22409857D01*
X97523857Y-22409857D02*
X97669000Y-22530809D01*
X97814143Y-22772714D01*
X97814143Y-23135571D01*
X97669000Y-23377476D01*
X97378714Y-23498428D01*
X95782143Y-23498428D01*
X97814143Y-24345095D02*
X97814143Y-25312714D01*
X98830143Y-24707952D02*
X96217571Y-24707952D01*
X95927286Y-24828904D01*
X95782143Y-25070809D01*
X95782143Y-25312714D01*
X95782143Y-26159381D02*
X97814143Y-26159381D01*
X97233571Y-26159381D02*
X97523857Y-26280333D01*
X97669000Y-26401286D01*
X97814143Y-26643190D01*
X97814143Y-26885095D01*
X95782143Y-28094619D02*
X95927286Y-27852714D01*
X96072429Y-27731762D01*
X96362714Y-27610810D01*
X97233571Y-27610810D01*
X97523857Y-27731762D01*
X97669000Y-27852714D01*
X97814143Y-28094619D01*
X97814143Y-28457476D01*
X97669000Y-28699381D01*
X97523857Y-28820333D01*
X97233571Y-28941286D01*
X96362714Y-28941286D01*
X96072429Y-28820333D01*
X95927286Y-28699381D01*
X95782143Y-28457476D01*
X95782143Y-28094619D01*
X95782143Y-30392714D02*
X95927286Y-30150809D01*
X96217571Y-30029857D01*
X98830143Y-30029857D01*
X95782143Y-31723190D02*
X95927286Y-31481285D01*
X96217571Y-31360333D01*
X98830143Y-31360333D01*
X95927286Y-33658428D02*
X95782143Y-33416523D01*
X95782143Y-32932714D01*
X95927286Y-32690809D01*
X96217571Y-32569857D01*
X97378714Y-32569857D01*
X97669000Y-32690809D01*
X97814143Y-32932714D01*
X97814143Y-33416523D01*
X97669000Y-33658428D01*
X97378714Y-33779380D01*
X97088429Y-33779380D01*
X96798143Y-32569857D01*
X95782143Y-34867952D02*
X97814143Y-34867952D01*
X97233571Y-34867952D02*
X97523857Y-34988904D01*
X97669000Y-35109857D01*
X97814143Y-35351761D01*
X97814143Y-35593666D01*
X97814143Y-38133666D02*
X95782143Y-38738428D01*
X97814143Y-39343190D01*
X98539857Y-40189857D02*
X98685000Y-40310809D01*
X98830143Y-40552714D01*
X98830143Y-41157476D01*
X98685000Y-41399380D01*
X98539857Y-41520333D01*
X98249571Y-41641285D01*
X97959286Y-41641285D01*
X97523857Y-41520333D01*
X95782143Y-40068904D01*
X95782143Y-41641285D01*
D11*
X82965000Y22690000D02*
G75*
G03X82965000Y22690000I-4445000J0D01*
G01*
D15*
X105035000Y21590200D02*
X107575000Y21590200D01*
D16*
X107280527Y24335864D02*
G75*
G03X106305000Y24689000I-975527J-1170864D01*
G01*
X106304531Y24687111D02*
G75*
G03X105294080Y24302920I469J-1522111D01*
G01*
X106305034Y21642853D02*
G75*
G03X107295600Y22009300I-34J1522147D01*
G01*
X105329473Y21994136D02*
G75*
G03X106305000Y21641000I975527J1170864D01*
G01*
X107192155Y21925834D02*
G75*
G03X107829000Y23165000I-887155J1239166D01*
G01*
X107829000Y23165801D02*
G75*
G03X107219400Y24384200I-1524000J-801D01*
G01*
X104782794Y23164558D02*
G75*
G03X105370280Y21963580I1522206J442D01*
G01*
X105368829Y24367564D02*
G75*
G03X104781000Y23165000I936171J-1202564D01*
G01*
X106940000Y23165000D02*
G75*
G03X106305000Y23800000I-635000J0D01*
G01*
X107321000Y23165000D02*
G75*
G03X106305000Y24181000I-1016000J0D01*
G01*
X105670000Y23165000D02*
G75*
G03X106305000Y22530000I635000J0D01*
G01*
X105289000Y23165000D02*
G75*
G03X106305000Y22149000I1016000J0D01*
G01*
D15*
X107608426Y21606120D02*
G75*
G03X108337000Y23165000I-1303426J1558880D01*
G01*
X108334460Y23165975D02*
G75*
G03X107260040Y24955700I-2029460J-975D01*
G01*
X104275614Y23162448D02*
G75*
G03X104994360Y21615600I2029386J2552D01*
G01*
X105295149Y24928299D02*
G75*
G03X104273000Y23165000I1009851J-1763299D01*
G01*
X107268347Y24954130D02*
G75*
G03X106305000Y25197000I-963347J-1789130D01*
G01*
X106304900Y25195923D02*
G75*
G03X105240740Y24894740I100J-2030923D01*
G01*
X107575000Y25400200D02*
X110115000Y25400200D01*
D16*
X109820527Y28145864D02*
G75*
G03X108845000Y28499000I-975527J-1170864D01*
G01*
X108844531Y28497111D02*
G75*
G03X107834080Y28112920I469J-1522111D01*
G01*
X108845034Y25452853D02*
G75*
G03X109835600Y25819300I-34J1522147D01*
G01*
X107869473Y25804136D02*
G75*
G03X108845000Y25451000I975527J1170864D01*
G01*
X109732155Y25735834D02*
G75*
G03X110369000Y26975000I-887155J1239166D01*
G01*
X110369000Y26975801D02*
G75*
G03X109759400Y28194200I-1524000J-801D01*
G01*
X107322794Y26974558D02*
G75*
G03X107910280Y25773580I1522206J442D01*
G01*
X107908829Y28177564D02*
G75*
G03X107321000Y26975000I936171J-1202564D01*
G01*
X109480000Y26975000D02*
G75*
G03X108845000Y27610000I-635000J0D01*
G01*
X109861000Y26975000D02*
G75*
G03X108845000Y27991000I-1016000J0D01*
G01*
X108210000Y26975000D02*
G75*
G03X108845000Y26340000I635000J0D01*
G01*
X107829000Y26975000D02*
G75*
G03X108845000Y25959000I1016000J0D01*
G01*
D15*
X110148426Y25416120D02*
G75*
G03X110877000Y26975000I-1303426J1558880D01*
G01*
X110874460Y26975975D02*
G75*
G03X109800040Y28765700I-2029460J-975D01*
G01*
X106815614Y26972448D02*
G75*
G03X107534360Y25425600I2029386J2552D01*
G01*
X107835149Y28738299D02*
G75*
G03X106813000Y26975000I1009851J-1763299D01*
G01*
X109808347Y28764130D02*
G75*
G03X108845000Y29007000I-963347J-1789130D01*
G01*
X108844900Y29005923D02*
G75*
G03X107780740Y28704740I100J-2030923D01*
G01*
X110115000Y21590200D02*
X112655000Y21590200D01*
D16*
X112360527Y24335864D02*
G75*
G03X111385000Y24689000I-975527J-1170864D01*
G01*
X111384531Y24687111D02*
G75*
G03X110374080Y24302920I469J-1522111D01*
G01*
X111385034Y21642853D02*
G75*
G03X112375600Y22009300I-34J1522147D01*
G01*
X110409473Y21994136D02*
G75*
G03X111385000Y21641000I975527J1170864D01*
G01*
X112272155Y21925834D02*
G75*
G03X112909000Y23165000I-887155J1239166D01*
G01*
X112909000Y23165801D02*
G75*
G03X112299400Y24384200I-1524000J-801D01*
G01*
X109862794Y23164558D02*
G75*
G03X110450280Y21963580I1522206J442D01*
G01*
X110448829Y24367564D02*
G75*
G03X109861000Y23165000I936171J-1202564D01*
G01*
X112020000Y23165000D02*
G75*
G03X111385000Y23800000I-635000J0D01*
G01*
X112401000Y23165000D02*
G75*
G03X111385000Y24181000I-1016000J0D01*
G01*
X110750000Y23165000D02*
G75*
G03X111385000Y22530000I635000J0D01*
G01*
X110369000Y23165000D02*
G75*
G03X111385000Y22149000I1016000J0D01*
G01*
D15*
X112688426Y21606120D02*
G75*
G03X113417000Y23165000I-1303426J1558880D01*
G01*
X113414460Y23165975D02*
G75*
G03X112340040Y24955700I-2029460J-975D01*
G01*
X109355614Y23162448D02*
G75*
G03X110074360Y21615600I2029386J2552D01*
G01*
X110375149Y24928299D02*
G75*
G03X109353000Y23165000I1009851J-1763299D01*
G01*
X112348347Y24954130D02*
G75*
G03X111385000Y25197000I-963347J-1789130D01*
G01*
X111384900Y25195923D02*
G75*
G03X110320740Y24894740I100J-2030923D01*
G01*
X112782000Y25273200D02*
X115322000Y25273200D01*
D16*
X115027527Y28018864D02*
G75*
G03X114052000Y28372000I-975527J-1170864D01*
G01*
X114051531Y28370111D02*
G75*
G03X113041080Y27985920I469J-1522111D01*
G01*
X114052034Y25325853D02*
G75*
G03X115042600Y25692300I-34J1522147D01*
G01*
X113076473Y25677136D02*
G75*
G03X114052000Y25324000I975527J1170864D01*
G01*
X114939155Y25608834D02*
G75*
G03X115576000Y26848000I-887155J1239166D01*
G01*
X115576000Y26848801D02*
G75*
G03X114966400Y28067200I-1524000J-801D01*
G01*
X112529794Y26847558D02*
G75*
G03X113117280Y25646580I1522206J442D01*
G01*
X113115829Y28050564D02*
G75*
G03X112528000Y26848000I936171J-1202564D01*
G01*
X114687000Y26848000D02*
G75*
G03X114052000Y27483000I-635000J0D01*
G01*
X115068000Y26848000D02*
G75*
G03X114052000Y27864000I-1016000J0D01*
G01*
X113417000Y26848000D02*
G75*
G03X114052000Y26213000I635000J0D01*
G01*
X113036000Y26848000D02*
G75*
G03X114052000Y25832000I1016000J0D01*
G01*
D15*
X115355426Y25289120D02*
G75*
G03X116084000Y26848000I-1303426J1558880D01*
G01*
X116081460Y26848975D02*
G75*
G03X115007040Y28638700I-2029460J-975D01*
G01*
X112022614Y26845448D02*
G75*
G03X112741360Y25298600I2029386J2552D01*
G01*
X113042149Y28611299D02*
G75*
G03X112020000Y26848000I1009851J-1763299D01*
G01*
X115015347Y28637130D02*
G75*
G03X114052000Y28880000I-963347J-1789130D01*
G01*
X114051900Y28878923D02*
G75*
G03X112987740Y28577740I100J-2030923D01*
G01*
D17*
X127865000Y27835000D02*
X127865000Y24835000D01*
X128865000Y27835000D02*
X128865000Y24835000D01*
X133865000Y33835000D02*
X133865000Y30835000D01*
X134865000Y32835000D02*
X134865000Y33835000D01*
X134865000Y32835000D02*
X134865000Y30835000D01*
X124865000Y36835000D02*
X136865000Y22835000D01*
X136865000Y36835000D02*
X136865000Y22835000D01*
X136865000Y22835000D02*
X124865000Y22835000D01*
X124865000Y22835000D02*
X124865000Y36835000D01*
X124865000Y36835000D02*
X136865000Y36835000D01*
X141865000Y49835000D02*
X120865000Y49835000D01*
X120865000Y49835000D02*
X120865000Y6835000D01*
X120865000Y6835000D02*
X141865000Y6835000D01*
X141865000Y6835000D02*
X141865000Y49835000D01*
D18*
X98840000Y7450000D02*
X86775000Y7450000D01*
X98840000Y49360000D02*
X86775000Y49360000D01*
D17*
X89315000Y16975000D02*
X89315000Y19515000D01*
X89315000Y19515000D02*
X91220000Y19515000D01*
X91220000Y19515000D02*
X91220000Y16975000D01*
X91220000Y16975000D02*
X89315000Y16975000D01*
X88045000Y16975000D02*
X92490000Y16975000D01*
X92490000Y16975000D02*
X92490000Y19515000D01*
X92490000Y19515000D02*
X88045000Y19515000D01*
X88045000Y19515000D02*
X88045000Y16975000D01*
X89315000Y44915000D02*
X89315000Y50630000D01*
X89315000Y50630000D02*
X95665000Y50630000D01*
X95665000Y50630000D02*
X95665000Y44915000D01*
X95665000Y44915000D02*
X89315000Y44915000D01*
X98840000Y7450000D02*
X98840000Y49360000D01*
X86775000Y49360000D02*
X86775000Y7450000D01*
X91220000Y7450000D02*
X91220000Y8720000D01*
X91220000Y8720000D02*
X93760000Y8720000D01*
X93760000Y8720000D02*
X93760000Y7450000D01*
D19*
X79635000Y7290000D02*
X79635000Y17450000D01*
X72015000Y7290000D02*
X72015000Y17450000D01*
X79635000Y17450000D02*
X72015000Y17450000D01*
X72015000Y12370000D02*
X79635000Y12370000D01*
X79635000Y7290000D02*
X72015000Y7290000D01*
X150275000Y30310000D02*
X150275000Y40470000D01*
X142655000Y30310000D02*
X142655000Y40470000D01*
X150275000Y40470000D02*
X142655000Y40470000D01*
X142655000Y35390000D02*
X150275000Y35390000D01*
X150275000Y30310000D02*
X142655000Y30310000D01*
D11*
X72650000Y39675000D02*
X72650000Y39675000D01*
X70110000Y39675000D02*
X72650000Y39675000D01*
X72650000Y39675000D02*
X72650000Y39675000D01*
X72650000Y39675000D02*
X72650000Y29515000D01*
X72650000Y29515000D02*
X70110000Y29515000D01*
X70110000Y29515000D02*
X70110000Y39675000D01*
X70110000Y37135000D02*
X72650000Y37135000D01*
D17*
X82135000Y30945000D02*
X81135000Y30945000D01*
X81135000Y30945000D02*
X81135000Y32445000D01*
X81135000Y32445000D02*
X82135000Y32445000D01*
X82135000Y40945000D02*
X81135000Y40945000D01*
X81135000Y40945000D02*
X81135000Y39445000D01*
X81135000Y39445000D02*
X82135000Y39445000D01*
X82135000Y43445000D02*
X77135000Y43445000D01*
X77135000Y43445000D02*
X77135000Y28445000D01*
X77135000Y28445000D02*
X82135000Y28445000D01*
X82135000Y43445000D02*
X82135000Y28445000D01*
X139104000Y-10323000D02*
X139104000Y-9323000D01*
X139104000Y-9323000D02*
X140604000Y-9323000D01*
X140604000Y-9323000D02*
X140604000Y-10323000D01*
X149104000Y-10323000D02*
X149104000Y-9323000D01*
X149104000Y-9323000D02*
X147604000Y-9323000D01*
X147604000Y-9323000D02*
X147604000Y-10323000D01*
X151604000Y-10323000D02*
X151604000Y-5323000D01*
X151604000Y-5323000D02*
X136604000Y-5323000D01*
X136604000Y-5323000D02*
X136604000Y-10323000D01*
X151604000Y-10323000D02*
X136604000Y-10323000D01*
X139104000Y-29373000D02*
X139104000Y-28373000D01*
X139104000Y-28373000D02*
X140604000Y-28373000D01*
X140604000Y-28373000D02*
X140604000Y-29373000D01*
X149104000Y-29373000D02*
X149104000Y-28373000D01*
X149104000Y-28373000D02*
X147604000Y-28373000D01*
X147604000Y-28373000D02*
X147604000Y-29373000D01*
X151604000Y-29373000D02*
X151604000Y-24373000D01*
X151604000Y-24373000D02*
X136604000Y-24373000D01*
X136604000Y-24373000D02*
X136604000Y-29373000D01*
X151604000Y-29373000D02*
X136604000Y-29373000D01*
X139104000Y-47153000D02*
X139104000Y-46153000D01*
X139104000Y-46153000D02*
X140604000Y-46153000D01*
X140604000Y-46153000D02*
X140604000Y-47153000D01*
X149104000Y-47153000D02*
X149104000Y-46153000D01*
X149104000Y-46153000D02*
X147604000Y-46153000D01*
X147604000Y-46153000D02*
X147604000Y-47153000D01*
X151604000Y-47153000D02*
X151604000Y-42153000D01*
X151604000Y-42153000D02*
X136604000Y-42153000D01*
X136604000Y-42153000D02*
X136604000Y-47153000D01*
X151604000Y-47153000D02*
X136604000Y-47153000D01*
X131230000Y-65695000D02*
X131230000Y-64695000D01*
X131230000Y-64695000D02*
X132730000Y-64695000D01*
X132730000Y-64695000D02*
X132730000Y-65695000D01*
X141230000Y-65695000D02*
X141230000Y-64695000D01*
X141230000Y-64695000D02*
X139730000Y-64695000D01*
X139730000Y-64695000D02*
X139730000Y-65695000D01*
X143730000Y-65695000D02*
X143730000Y-60695000D01*
X143730000Y-60695000D02*
X128730000Y-60695000D01*
X128730000Y-60695000D02*
X128730000Y-65695000D01*
X143730000Y-65695000D02*
X128730000Y-65695000D01*
X109894000Y-10323000D02*
X109894000Y-9323000D01*
X109894000Y-9323000D02*
X111394000Y-9323000D01*
X111394000Y-9323000D02*
X111394000Y-10323000D01*
X119894000Y-10323000D02*
X119894000Y-9323000D01*
X119894000Y-9323000D02*
X118394000Y-9323000D01*
X118394000Y-9323000D02*
X118394000Y-10323000D01*
X122394000Y-10323000D02*
X122394000Y-5323000D01*
X122394000Y-5323000D02*
X107394000Y-5323000D01*
X107394000Y-5323000D02*
X107394000Y-10323000D01*
X122394000Y-10323000D02*
X107394000Y-10323000D01*
X109894000Y-28738000D02*
X109894000Y-27738000D01*
X109894000Y-27738000D02*
X111394000Y-27738000D01*
X111394000Y-27738000D02*
X111394000Y-28738000D01*
X119894000Y-28738000D02*
X119894000Y-27738000D01*
X119894000Y-27738000D02*
X118394000Y-27738000D01*
X118394000Y-27738000D02*
X118394000Y-28738000D01*
X122394000Y-28738000D02*
X122394000Y-23738000D01*
X122394000Y-23738000D02*
X107394000Y-23738000D01*
X107394000Y-23738000D02*
X107394000Y-28738000D01*
X122394000Y-28738000D02*
X107394000Y-28738000D01*
X109894000Y-47153000D02*
X109894000Y-46153000D01*
X109894000Y-46153000D02*
X111394000Y-46153000D01*
X111394000Y-46153000D02*
X111394000Y-47153000D01*
X119894000Y-47153000D02*
X119894000Y-46153000D01*
X119894000Y-46153000D02*
X118394000Y-46153000D01*
X118394000Y-46153000D02*
X118394000Y-47153000D01*
X122394000Y-47153000D02*
X122394000Y-42153000D01*
X122394000Y-42153000D02*
X107394000Y-42153000D01*
X107394000Y-42153000D02*
X107394000Y-47153000D01*
X122394000Y-47153000D02*
X107394000Y-47153000D01*
X109894000Y-65568000D02*
X109894000Y-64568000D01*
X109894000Y-64568000D02*
X111394000Y-64568000D01*
X111394000Y-64568000D02*
X111394000Y-65568000D01*
X119894000Y-65568000D02*
X119894000Y-64568000D01*
X119894000Y-64568000D02*
X118394000Y-64568000D01*
X118394000Y-64568000D02*
X118394000Y-65568000D01*
X122394000Y-65568000D02*
X122394000Y-60568000D01*
X122394000Y-60568000D02*
X107394000Y-60568000D01*
X107394000Y-60568000D02*
X107394000Y-65568000D01*
X122394000Y-65568000D02*
X107394000Y-65568000D01*
X80684000Y-10323000D02*
X80684000Y-9323000D01*
X80684000Y-9323000D02*
X82184000Y-9323000D01*
X82184000Y-9323000D02*
X82184000Y-10323000D01*
X90684000Y-10323000D02*
X90684000Y-9323000D01*
X90684000Y-9323000D02*
X89184000Y-9323000D01*
X89184000Y-9323000D02*
X89184000Y-10323000D01*
X93184000Y-10323000D02*
X93184000Y-5323000D01*
X93184000Y-5323000D02*
X78184000Y-5323000D01*
X78184000Y-5323000D02*
X78184000Y-10323000D01*
X93184000Y-10323000D02*
X78184000Y-10323000D01*
X80684000Y-28738000D02*
X80684000Y-27738000D01*
X80684000Y-27738000D02*
X82184000Y-27738000D01*
X82184000Y-27738000D02*
X82184000Y-28738000D01*
X90684000Y-28738000D02*
X90684000Y-27738000D01*
X90684000Y-27738000D02*
X89184000Y-27738000D01*
X89184000Y-27738000D02*
X89184000Y-28738000D01*
X93184000Y-28738000D02*
X93184000Y-23738000D01*
X93184000Y-23738000D02*
X78184000Y-23738000D01*
X78184000Y-23738000D02*
X78184000Y-28738000D01*
X93184000Y-28738000D02*
X78184000Y-28738000D01*
X80684000Y-47153000D02*
X80684000Y-46153000D01*
X80684000Y-46153000D02*
X82184000Y-46153000D01*
X82184000Y-46153000D02*
X82184000Y-47153000D01*
X90684000Y-47153000D02*
X90684000Y-46153000D01*
X90684000Y-46153000D02*
X89184000Y-46153000D01*
X89184000Y-46153000D02*
X89184000Y-47153000D01*
X93184000Y-47153000D02*
X93184000Y-42153000D01*
X93184000Y-42153000D02*
X78184000Y-42153000D01*
X78184000Y-42153000D02*
X78184000Y-47153000D01*
X93184000Y-47153000D02*
X78184000Y-47153000D01*
X83224000Y-65568000D02*
X83224000Y-64568000D01*
X83224000Y-64568000D02*
X84724000Y-64568000D01*
X84724000Y-64568000D02*
X84724000Y-65568000D01*
X93224000Y-65568000D02*
X93224000Y-64568000D01*
X93224000Y-64568000D02*
X91724000Y-64568000D01*
X91724000Y-64568000D02*
X91724000Y-65568000D01*
X95724000Y-65568000D02*
X95724000Y-60568000D01*
X95724000Y-60568000D02*
X80724000Y-60568000D01*
X80724000Y-60568000D02*
X80724000Y-65568000D01*
X95724000Y-65568000D02*
X80724000Y-65568000D01*
D19*
X150275000Y16975000D02*
X150275000Y27135000D01*
X142655000Y16975000D02*
X142655000Y27135000D01*
X150275000Y27135000D02*
X142655000Y27135000D01*
X142655000Y22055000D02*
X150275000Y22055000D01*
X150275000Y16975000D02*
X142655000Y16975000D01*
D11*
X106305000Y18720000D02*
X106305000Y18212000D01*
X106305000Y11100000D02*
X106305000Y11608000D01*
X106305000Y11608000D02*
X107321000Y11608000D01*
X107321000Y11608000D02*
X107321000Y18212000D01*
X107321000Y18212000D02*
X105289000Y18212000D01*
X105289000Y18212000D02*
X105289000Y11608000D01*
X105289000Y11608000D02*
X106305000Y11608000D01*
X106813000Y18212000D02*
X107321000Y17704000D01*
X108845000Y18720000D02*
X108845000Y18212000D01*
X108845000Y11100000D02*
X108845000Y11608000D01*
X108845000Y11608000D02*
X109861000Y11608000D01*
X109861000Y11608000D02*
X109861000Y18212000D01*
X109861000Y18212000D02*
X107829000Y18212000D01*
X107829000Y18212000D02*
X107829000Y11608000D01*
X107829000Y11608000D02*
X108845000Y11608000D01*
X109353000Y18212000D02*
X109861000Y17704000D01*
X111385000Y18720000D02*
X111385000Y18212000D01*
X111385000Y11100000D02*
X111385000Y11608000D01*
X111385000Y11608000D02*
X112401000Y11608000D01*
X112401000Y11608000D02*
X112401000Y18212000D01*
X112401000Y18212000D02*
X110369000Y18212000D01*
X110369000Y18212000D02*
X110369000Y11608000D01*
X110369000Y11608000D02*
X111385000Y11608000D01*
X111893000Y18212000D02*
X112401000Y17704000D01*
X113925000Y18720000D02*
X113925000Y18212000D01*
X113925000Y11100000D02*
X113925000Y11608000D01*
X113925000Y11608000D02*
X114941000Y11608000D01*
X114941000Y11608000D02*
X114941000Y18212000D01*
X114941000Y18212000D02*
X112909000Y18212000D01*
X112909000Y18212000D02*
X112909000Y11608000D01*
X112909000Y11608000D02*
X113925000Y11608000D01*
X114433000Y18212000D02*
X114941000Y17704000D01*
X82330000Y17610000D02*
X82330000Y16848000D01*
X82330000Y16848000D02*
X81314000Y16848000D01*
X81314000Y16848000D02*
X81314000Y10752000D01*
X81314000Y10752000D02*
X82330000Y10752000D01*
X82330000Y10752000D02*
X82330000Y9990000D01*
X82330000Y10752000D02*
X83346000Y10752000D01*
X83346000Y10752000D02*
X83346000Y16848000D01*
X83346000Y16848000D02*
X82330000Y16848000D01*
X81314000Y15197000D02*
X83346000Y15197000D01*
X83346000Y14943000D02*
X81314000Y14943000D01*
D17*
X151390000Y-965000D02*
X151390000Y-965000D01*
X151390000Y-965000D02*
X150120000Y-965000D01*
X150120000Y-965000D02*
X150120000Y1575000D01*
X150120000Y1575000D02*
X151390000Y1575000D01*
X151390000Y-2235000D02*
X128530000Y-2235000D01*
X128530000Y-2235000D02*
X128530000Y2845000D01*
X128530000Y2845000D02*
X151390000Y2845000D01*
X151390000Y2845000D02*
X151390000Y-2235000D01*
X151390000Y-18745000D02*
X151390000Y-18745000D01*
X151390000Y-18745000D02*
X150120000Y-18745000D01*
X150120000Y-18745000D02*
X150120000Y-16205000D01*
X150120000Y-16205000D02*
X151390000Y-16205000D01*
X151390000Y-20015000D02*
X128530000Y-20015000D01*
X128530000Y-20015000D02*
X128530000Y-14935000D01*
X128530000Y-14935000D02*
X151390000Y-14935000D01*
X151390000Y-14935000D02*
X151390000Y-20015000D01*
X151390000Y-37160000D02*
X151390000Y-37160000D01*
X151390000Y-37160000D02*
X150120000Y-37160000D01*
X150120000Y-37160000D02*
X150120000Y-34620000D01*
X150120000Y-34620000D02*
X151390000Y-34620000D01*
X151390000Y-38430000D02*
X128530000Y-38430000D01*
X128530000Y-38430000D02*
X128530000Y-33350000D01*
X128530000Y-33350000D02*
X151390000Y-33350000D01*
X151390000Y-33350000D02*
X151390000Y-38430000D01*
X151390000Y-54940000D02*
X151390000Y-54940000D01*
X151390000Y-54940000D02*
X150120000Y-54940000D01*
X150120000Y-54940000D02*
X150120000Y-52400000D01*
X150120000Y-52400000D02*
X151390000Y-52400000D01*
X151390000Y-56210000D02*
X128530000Y-56210000D01*
X128530000Y-56210000D02*
X128530000Y-51130000D01*
X128530000Y-51130000D02*
X151390000Y-51130000D01*
X151390000Y-51130000D02*
X151390000Y-56210000D01*
X122434000Y-838000D02*
X122434000Y-838000D01*
X122434000Y-838000D02*
X121164000Y-838000D01*
X121164000Y-838000D02*
X121164000Y1702000D01*
X121164000Y1702000D02*
X122434000Y1702000D01*
X122434000Y-2108000D02*
X99574000Y-2108000D01*
X99574000Y-2108000D02*
X99574000Y2972000D01*
X99574000Y2972000D02*
X122434000Y2972000D01*
X122434000Y2972000D02*
X122434000Y-2108000D01*
X122434000Y-18618000D02*
X122434000Y-18618000D01*
X122434000Y-18618000D02*
X121164000Y-18618000D01*
X121164000Y-18618000D02*
X121164000Y-16078000D01*
X121164000Y-16078000D02*
X122434000Y-16078000D01*
X122434000Y-19888000D02*
X99574000Y-19888000D01*
X99574000Y-19888000D02*
X99574000Y-14808000D01*
X99574000Y-14808000D02*
X122434000Y-14808000D01*
X122434000Y-14808000D02*
X122434000Y-19888000D01*
X122434000Y-37033000D02*
X122434000Y-37033000D01*
X122434000Y-37033000D02*
X121164000Y-37033000D01*
X121164000Y-37033000D02*
X121164000Y-34493000D01*
X121164000Y-34493000D02*
X122434000Y-34493000D01*
X122434000Y-38303000D02*
X99574000Y-38303000D01*
X99574000Y-38303000D02*
X99574000Y-33223000D01*
X99574000Y-33223000D02*
X122434000Y-33223000D01*
X122434000Y-33223000D02*
X122434000Y-38303000D01*
X122434000Y-55448000D02*
X122434000Y-55448000D01*
X122434000Y-55448000D02*
X121164000Y-55448000D01*
X121164000Y-55448000D02*
X121164000Y-52908000D01*
X121164000Y-52908000D02*
X122434000Y-52908000D01*
X122434000Y-56718000D02*
X99574000Y-56718000D01*
X99574000Y-56718000D02*
X99574000Y-51638000D01*
X99574000Y-51638000D02*
X122434000Y-51638000D01*
X122434000Y-51638000D02*
X122434000Y-56718000D01*
X93224000Y-838000D02*
X93224000Y-838000D01*
X93224000Y-838000D02*
X91954000Y-838000D01*
X91954000Y-838000D02*
X91954000Y1702000D01*
X91954000Y1702000D02*
X93224000Y1702000D01*
X93224000Y-2108000D02*
X70364000Y-2108000D01*
X70364000Y-2108000D02*
X70364000Y2972000D01*
X70364000Y2972000D02*
X93224000Y2972000D01*
X93224000Y2972000D02*
X93224000Y-2108000D01*
X93224000Y-18618000D02*
X93224000Y-18618000D01*
X93224000Y-18618000D02*
X91954000Y-18618000D01*
X91954000Y-18618000D02*
X91954000Y-16078000D01*
X91954000Y-16078000D02*
X93224000Y-16078000D01*
X93224000Y-19888000D02*
X70364000Y-19888000D01*
X70364000Y-19888000D02*
X70364000Y-14808000D01*
X70364000Y-14808000D02*
X93224000Y-14808000D01*
X93224000Y-14808000D02*
X93224000Y-19888000D01*
X93224000Y-37033000D02*
X93224000Y-37033000D01*
X93224000Y-37033000D02*
X91954000Y-37033000D01*
X91954000Y-37033000D02*
X91954000Y-34493000D01*
X91954000Y-34493000D02*
X93224000Y-34493000D01*
X93224000Y-38303000D02*
X70364000Y-38303000D01*
X70364000Y-38303000D02*
X70364000Y-33223000D01*
X70364000Y-33223000D02*
X93224000Y-33223000D01*
X93224000Y-33223000D02*
X93224000Y-38303000D01*
X93224000Y-55448000D02*
X93224000Y-55448000D01*
X93224000Y-55448000D02*
X91954000Y-55448000D01*
X91954000Y-55448000D02*
X91954000Y-52908000D01*
X91954000Y-52908000D02*
X93224000Y-52908000D01*
X93224000Y-56718000D02*
X70364000Y-56718000D01*
X70364000Y-56718000D02*
X70364000Y-51638000D01*
X70364000Y-51638000D02*
X93224000Y-51638000D01*
X93224000Y-51638000D02*
X93224000Y-56718000D01*
D11*
X117100000Y49200000D02*
X117100000Y46660000D01*
X117100000Y46660000D02*
X112020000Y46660000D01*
X112020000Y46660000D02*
X112020000Y49200000D01*
X112020000Y49200000D02*
X117100000Y49200000D01*
X109480000Y49200000D02*
X109480000Y46660000D01*
X109480000Y46660000D02*
X104400000Y46660000D01*
X104400000Y46660000D02*
X104400000Y49200000D01*
X104400000Y49200000D02*
X109480000Y49200000D01*
X88680000Y41105000D02*
X88680000Y40597000D01*
X88680000Y33485000D02*
X88680000Y33993000D01*
X88680000Y33993000D02*
X89696000Y33993000D01*
X89696000Y33993000D02*
X89696000Y40597000D01*
X89696000Y40597000D02*
X87664000Y40597000D01*
X87664000Y40597000D02*
X87664000Y33993000D01*
X87664000Y33993000D02*
X88680000Y33993000D01*
X89188000Y40597000D02*
X89696000Y40089000D01*
X91220000Y29675000D02*
X91220000Y29167000D01*
X91220000Y22055000D02*
X91220000Y22563000D01*
X91220000Y22563000D02*
X92236000Y22563000D01*
X92236000Y22563000D02*
X92236000Y29167000D01*
X92236000Y29167000D02*
X90204000Y29167000D01*
X90204000Y29167000D02*
X90204000Y22563000D01*
X90204000Y22563000D02*
X91220000Y22563000D01*
X91728000Y29167000D02*
X92236000Y28659000D01*
X88680000Y22055000D02*
X88680000Y22817000D01*
X88680000Y22817000D02*
X89696000Y22817000D01*
X89696000Y22817000D02*
X89696000Y28913000D01*
X89696000Y28913000D02*
X88680000Y28913000D01*
X88680000Y28913000D02*
X88680000Y29675000D01*
X88680000Y28913000D02*
X87664000Y28913000D01*
X87664000Y28913000D02*
X87664000Y22817000D01*
X87664000Y22817000D02*
X88680000Y22817000D01*
X89696000Y24468000D02*
X87664000Y24468000D01*
X87664000Y24722000D02*
X89696000Y24722000D01*
D20*
X82692857Y26965667D02*
X82741238Y26917286D01*
X82789619Y26772143D01*
X82789619Y26675381D01*
X82741238Y26530239D01*
X82644476Y26433477D01*
X82547714Y26385096D01*
X82354190Y26336715D01*
X82209048Y26336715D01*
X82015524Y26385096D01*
X81918762Y26433477D01*
X81822000Y26530239D01*
X81773619Y26675381D01*
X81773619Y26772143D01*
X81822000Y26917286D01*
X81870381Y26965667D01*
X81773619Y27304334D02*
X81773619Y27933286D01*
X82160667Y27594620D01*
X82160667Y27739762D01*
X82209048Y27836524D01*
X82257429Y27884905D01*
X82354190Y27933286D01*
X82596095Y27933286D01*
X82692857Y27884905D01*
X82741238Y27836524D01*
X82789619Y27739762D01*
X82789619Y27449477D01*
X82741238Y27352715D01*
X82692857Y27304334D01*
X81519619Y21601429D02*
X81519619Y21020858D01*
X81519619Y21311144D02*
X80503619Y21311144D01*
X80648762Y21214382D01*
X80745524Y21117620D01*
X80793905Y21020858D01*
X80503619Y22230382D02*
X80503619Y22327143D01*
X80552000Y22423905D01*
X80600381Y22472286D01*
X80697143Y22520667D01*
X80890667Y22569048D01*
X81132571Y22569048D01*
X81326095Y22520667D01*
X81422857Y22472286D01*
X81471238Y22423905D01*
X81519619Y22327143D01*
X81519619Y22230382D01*
X81471238Y22133620D01*
X81422857Y22085239D01*
X81326095Y22036858D01*
X81132571Y21988477D01*
X80890667Y21988477D01*
X80697143Y22036858D01*
X80600381Y22085239D01*
X80552000Y22133620D01*
X80503619Y22230382D01*
X80842286Y23439905D02*
X81519619Y23439905D01*
X80842286Y23004477D02*
X81374476Y23004477D01*
X81471238Y23052858D01*
X81519619Y23149620D01*
X81519619Y23294762D01*
X81471238Y23391524D01*
X81422857Y23439905D01*
X80987429Y24262381D02*
X80987429Y23923715D01*
X81519619Y23923715D02*
X80503619Y23923715D01*
X80503619Y24407524D01*
D21*
X108034619Y20304476D02*
X108034619Y21574476D01*
X108337000Y21574476D01*
X108518428Y21514000D01*
X108639381Y21393048D01*
X108699857Y21272095D01*
X108760333Y21030190D01*
X108760333Y20848762D01*
X108699857Y20606857D01*
X108639381Y20485905D01*
X108518428Y20364952D01*
X108337000Y20304476D01*
X108034619Y20304476D01*
X109969857Y20304476D02*
X109244143Y20304476D01*
X109607000Y20304476D02*
X109607000Y21574476D01*
X109486048Y21393048D01*
X109365095Y21272095D01*
X109244143Y21211619D01*
X110602619Y29100476D02*
X110602619Y30370476D01*
X110905000Y30370476D01*
X111086428Y30310000D01*
X111207381Y30189048D01*
X111267857Y30068095D01*
X111328333Y29826190D01*
X111328333Y29644762D01*
X111267857Y29402857D01*
X111207381Y29281905D01*
X111086428Y29160952D01*
X110905000Y29100476D01*
X110602619Y29100476D01*
X111751667Y30370476D02*
X112537857Y30370476D01*
X112114524Y29886667D01*
X112295952Y29886667D01*
X112416905Y29826190D01*
X112477381Y29765714D01*
X112537857Y29644762D01*
X112537857Y29342381D01*
X112477381Y29221429D01*
X112416905Y29160952D01*
X112295952Y29100476D01*
X111933095Y29100476D01*
X111812143Y29160952D01*
X111751667Y29221429D01*
X113114619Y20304476D02*
X113114619Y21574476D01*
X113417000Y21574476D01*
X113598428Y21514000D01*
X113719381Y21393048D01*
X113779857Y21272095D01*
X113840333Y21030190D01*
X113840333Y20848762D01*
X113779857Y20606857D01*
X113719381Y20485905D01*
X113598428Y20364952D01*
X113417000Y20304476D01*
X113114619Y20304476D01*
X114989381Y21574476D02*
X114384619Y21574476D01*
X114324143Y20969714D01*
X114384619Y21030190D01*
X114505571Y21090667D01*
X114807952Y21090667D01*
X114928905Y21030190D01*
X114989381Y20969714D01*
X115049857Y20848762D01*
X115049857Y20546381D01*
X114989381Y20425429D01*
X114928905Y20364952D01*
X114807952Y20304476D01*
X114505571Y20304476D01*
X114384619Y20364952D01*
X114324143Y20425429D01*
X115781619Y23987476D02*
X115781619Y25257476D01*
X116084000Y25257476D01*
X116265428Y25197000D01*
X116386381Y25076048D01*
X116446857Y24955095D01*
X116507333Y24713190D01*
X116507333Y24531762D01*
X116446857Y24289857D01*
X116386381Y24168905D01*
X116265428Y24047952D01*
X116084000Y23987476D01*
X115781619Y23987476D01*
X116930667Y25257476D02*
X117777333Y25257476D01*
X117233048Y23987476D01*
D22*
X139647501Y22401922D02*
X137917761Y22401922D01*
X137917761Y22660760D01*
X138000130Y22816063D01*
X138164867Y22919598D01*
X138329604Y22971366D01*
X138659079Y23023134D01*
X138906184Y23023134D01*
X139235659Y22971366D01*
X139400396Y22919598D01*
X139565133Y22816063D01*
X139647501Y22660760D01*
X139647501Y22401922D01*
X139482764Y24110254D02*
X139565133Y24058486D01*
X139647501Y23903183D01*
X139647501Y23799648D01*
X139565133Y23644345D01*
X139400396Y23540810D01*
X139235659Y23489042D01*
X138906184Y23437274D01*
X138659079Y23437274D01*
X138329604Y23489042D01*
X138164867Y23540810D01*
X138000130Y23644345D01*
X137917761Y23799648D01*
X137917761Y23903183D01*
X138000130Y24058486D01*
X138082499Y24110254D01*
X139647501Y24576162D02*
X137917761Y24576162D01*
X137917761Y24835000D01*
X138000130Y24990303D01*
X138164867Y25093838D01*
X138329604Y25145606D01*
X138659079Y25197374D01*
X138906184Y25197374D01*
X139235659Y25145606D01*
X139400396Y25093838D01*
X139565133Y24990303D01*
X139647501Y24835000D01*
X139647501Y24576162D01*
X139482764Y26284494D02*
X139565133Y26232726D01*
X139647501Y26077423D01*
X139647501Y25973888D01*
X139565133Y25818585D01*
X139400396Y25715050D01*
X139235659Y25663282D01*
X138906184Y25611514D01*
X138659079Y25611514D01*
X138329604Y25663282D01*
X138164867Y25715050D01*
X138000130Y25818585D01*
X137917761Y25973888D01*
X137917761Y26077423D01*
X138000130Y26232726D01*
X138082499Y26284494D01*
X139647501Y27319846D02*
X139647501Y26698634D01*
X139647501Y27009240D02*
X137917761Y27009240D01*
X138164867Y26905705D01*
X138329604Y26802170D01*
X138411973Y26698634D01*
D11*
X123554429Y20582142D02*
X122030429Y20582142D01*
X122030429Y20944999D01*
X122103000Y21162714D01*
X122248143Y21307856D01*
X122393286Y21380428D01*
X122683571Y21452999D01*
X122901286Y21452999D01*
X123191571Y21380428D01*
X123336714Y21307856D01*
X123481857Y21162714D01*
X123554429Y20944999D01*
X123554429Y20582142D01*
X123409286Y22976999D02*
X123481857Y22904428D01*
X123554429Y22686714D01*
X123554429Y22541571D01*
X123481857Y22323856D01*
X123336714Y22178714D01*
X123191571Y22106142D01*
X122901286Y22033571D01*
X122683571Y22033571D01*
X122393286Y22106142D01*
X122248143Y22178714D01*
X122103000Y22323856D01*
X122030429Y22541571D01*
X122030429Y22686714D01*
X122103000Y22904428D01*
X122175571Y22976999D01*
X123554429Y24791285D02*
X122030429Y24791285D01*
X122030429Y25154142D01*
X122103000Y25371857D01*
X122248143Y25516999D01*
X122393286Y25589571D01*
X122683571Y25662142D01*
X122901286Y25662142D01*
X123191571Y25589571D01*
X123336714Y25516999D01*
X123481857Y25371857D01*
X123554429Y25154142D01*
X123554429Y24791285D01*
X123409286Y27186142D02*
X123481857Y27113571D01*
X123554429Y26895857D01*
X123554429Y26750714D01*
X123481857Y26532999D01*
X123336714Y26387857D01*
X123191571Y26315285D01*
X122901286Y26242714D01*
X122683571Y26242714D01*
X122393286Y26315285D01*
X122248143Y26387857D01*
X122103000Y26532999D01*
X122030429Y26750714D01*
X122030429Y26895857D01*
X122103000Y27113571D01*
X122175571Y27186142D01*
X123409286Y29871285D02*
X123481857Y29798714D01*
X123554429Y29581000D01*
X123554429Y29435857D01*
X123481857Y29218142D01*
X123336714Y29073000D01*
X123191571Y29000428D01*
X122901286Y28927857D01*
X122683571Y28927857D01*
X122393286Y29000428D01*
X122248143Y29073000D01*
X122103000Y29218142D01*
X122030429Y29435857D01*
X122030429Y29581000D01*
X122103000Y29798714D01*
X122175571Y29871285D01*
X123554429Y30742142D02*
X123481857Y30597000D01*
X123409286Y30524428D01*
X123264143Y30451857D01*
X122828714Y30451857D01*
X122683571Y30524428D01*
X122611000Y30597000D01*
X122538429Y30742142D01*
X122538429Y30959857D01*
X122611000Y31105000D01*
X122683571Y31177571D01*
X122828714Y31250142D01*
X123264143Y31250142D01*
X123409286Y31177571D01*
X123481857Y31105000D01*
X123554429Y30959857D01*
X123554429Y30742142D01*
X122538429Y31903285D02*
X123554429Y31903285D01*
X122683571Y31903285D02*
X122611000Y31975857D01*
X122538429Y32120999D01*
X122538429Y32338714D01*
X122611000Y32483857D01*
X122756143Y32556428D01*
X123554429Y32556428D01*
X122538429Y33136999D02*
X123554429Y33499856D01*
X122538429Y33862714D01*
X123481857Y35023857D02*
X123554429Y34878714D01*
X123554429Y34588428D01*
X123481857Y34443285D01*
X123336714Y34370714D01*
X122756143Y34370714D01*
X122611000Y34443285D01*
X122538429Y34588428D01*
X122538429Y34878714D01*
X122611000Y35023857D01*
X122756143Y35096428D01*
X122901286Y35096428D01*
X123046429Y34370714D01*
X123554429Y35749571D02*
X122538429Y35749571D01*
X122828714Y35749571D02*
X122683571Y35822143D01*
X122611000Y35894714D01*
X122538429Y36039857D01*
X122538429Y36185000D01*
X122538429Y36475286D02*
X122538429Y37055857D01*
X122030429Y36693000D02*
X123336714Y36693000D01*
X123481857Y36765572D01*
X123554429Y36910714D01*
X123554429Y37055857D01*
X123481857Y38144429D02*
X123554429Y37999286D01*
X123554429Y37709000D01*
X123481857Y37563857D01*
X123336714Y37491286D01*
X122756143Y37491286D01*
X122611000Y37563857D01*
X122538429Y37709000D01*
X122538429Y37999286D01*
X122611000Y38144429D01*
X122756143Y38217000D01*
X122901286Y38217000D01*
X123046429Y37491286D01*
X123554429Y38870143D02*
X122538429Y38870143D01*
X122828714Y38870143D02*
X122683571Y38942715D01*
X122611000Y39015286D01*
X122538429Y39160429D01*
X122538429Y39305572D01*
D23*
X87099333Y9388000D02*
X88369333Y9388000D01*
X88623333Y9333572D01*
X88792667Y9224715D01*
X88877333Y9061429D01*
X88877333Y8952572D01*
X88877333Y10531000D02*
X88877333Y9877857D01*
X88877333Y10204429D02*
X87099333Y10204429D01*
X87353333Y10095572D01*
X87522667Y9986714D01*
X87607333Y9877857D01*
D11*
X96596333Y12995665D02*
X96596333Y13842331D01*
X97104333Y12826331D02*
X95326333Y13418998D01*
X97104333Y14011665D01*
X97104333Y15620331D02*
X96257667Y15027665D01*
X97104333Y14604331D02*
X95326333Y14604331D01*
X95326333Y15281665D01*
X95411000Y15450998D01*
X95495667Y15535665D01*
X95665000Y15620331D01*
X95919000Y15620331D01*
X96088333Y15535665D01*
X96173000Y15450998D01*
X96257667Y15281665D01*
X96257667Y14604331D01*
X97104333Y16382331D02*
X95326333Y16382331D01*
X95326333Y16805665D01*
X95411000Y17059665D01*
X95580333Y17228998D01*
X95749667Y17313665D01*
X96088333Y17398331D01*
X96342333Y17398331D01*
X96681000Y17313665D01*
X96850333Y17228998D01*
X97019667Y17059665D01*
X97104333Y16805665D01*
X97104333Y16382331D01*
X95326333Y18160331D02*
X96765667Y18160331D01*
X96935000Y18244998D01*
X97019667Y18329665D01*
X97104333Y18498998D01*
X97104333Y18837665D01*
X97019667Y19006998D01*
X96935000Y19091665D01*
X96765667Y19176331D01*
X95326333Y19176331D01*
X97104333Y20022998D02*
X95326333Y20022998D01*
X97104333Y20869665D02*
X95326333Y20869665D01*
X97104333Y21885665D01*
X95326333Y21885665D01*
X95326333Y23070999D02*
X95326333Y23409666D01*
X95411000Y23578999D01*
X95580333Y23748332D01*
X95919000Y23832999D01*
X96511667Y23832999D01*
X96850333Y23748332D01*
X97019667Y23578999D01*
X97104333Y23409666D01*
X97104333Y23070999D01*
X97019667Y22901666D01*
X96850333Y22732332D01*
X96511667Y22647666D01*
X95919000Y22647666D01*
X95580333Y22732332D01*
X95411000Y22901666D01*
X95326333Y23070999D01*
X97273667Y24171666D02*
X97273667Y25526333D01*
X97104333Y25949666D02*
X95326333Y25949666D01*
X97104333Y26965666D01*
X95326333Y26965666D01*
X96596333Y27727667D02*
X96596333Y28574333D01*
X97104333Y27558333D02*
X95326333Y28151000D01*
X97104333Y28743667D01*
X97104333Y29336333D02*
X95326333Y29336333D01*
X97104333Y30352333D01*
X95326333Y30352333D01*
X95326333Y31537667D02*
X95326333Y31876334D01*
X95411000Y32045667D01*
X95580333Y32215000D01*
X95919000Y32299667D01*
X96511667Y32299667D01*
X96850333Y32215000D01*
X97019667Y32045667D01*
X97104333Y31876334D01*
X97104333Y31537667D01*
X97019667Y31368334D01*
X96850333Y31199000D01*
X96511667Y31114334D01*
X95919000Y31114334D01*
X95580333Y31199000D01*
X95411000Y31368334D01*
X95326333Y31537667D01*
X97273667Y32638334D02*
X97273667Y33993001D01*
X97104333Y34416334D02*
X95326333Y34416334D01*
X96173000Y34416334D02*
X96173000Y35432334D01*
X97104333Y35432334D02*
X95326333Y35432334D01*
X96173000Y36279001D02*
X96173000Y36871668D01*
X97104333Y37125668D02*
X97104333Y36279001D01*
X95326333Y36279001D01*
X95326333Y37125668D01*
X96596333Y37803002D02*
X96596333Y38649668D01*
X97104333Y37633668D02*
X95326333Y38226335D01*
X97104333Y38819002D01*
X97104333Y39411668D02*
X95326333Y39411668D01*
X95326333Y39835002D01*
X95411000Y40089002D01*
X95580333Y40258335D01*
X95749667Y40343002D01*
X96088333Y40427668D01*
X96342333Y40427668D01*
X96681000Y40343002D01*
X96850333Y40258335D01*
X97019667Y40089002D01*
X97104333Y39835002D01*
X97104333Y39411668D01*
X96173000Y41189668D02*
X96173000Y41782335D01*
X97104333Y42036335D02*
X97104333Y41189668D01*
X95326333Y41189668D01*
X95326333Y42036335D01*
X97104333Y43814335D02*
X96257667Y43221669D01*
X97104333Y42798335D02*
X95326333Y42798335D01*
X95326333Y43475669D01*
X95411000Y43645002D01*
X95495667Y43729669D01*
X95665000Y43814335D01*
X95919000Y43814335D01*
X96088333Y43729669D01*
X96173000Y43645002D01*
X96257667Y43475669D01*
X96257667Y42798335D01*
X90566857Y48289571D02*
X90566857Y47055857D01*
X90639429Y46910714D01*
X90712000Y46838143D01*
X90857143Y46765571D01*
X91147429Y46765571D01*
X91292571Y46838143D01*
X91365143Y46910714D01*
X91437714Y47055857D01*
X91437714Y48289571D01*
X92090857Y46838143D02*
X92308571Y46765571D01*
X92671428Y46765571D01*
X92816571Y46838143D01*
X92889142Y46910714D01*
X92961714Y47055857D01*
X92961714Y47201000D01*
X92889142Y47346143D01*
X92816571Y47418714D01*
X92671428Y47491286D01*
X92381142Y47563857D01*
X92236000Y47636429D01*
X92163428Y47709000D01*
X92090857Y47854143D01*
X92090857Y47999286D01*
X92163428Y48144429D01*
X92236000Y48217000D01*
X92381142Y48289571D01*
X92744000Y48289571D01*
X92961714Y48217000D01*
X94122857Y47563857D02*
X94340571Y47491286D01*
X94413143Y47418714D01*
X94485714Y47273571D01*
X94485714Y47055857D01*
X94413143Y46910714D01*
X94340571Y46838143D01*
X94195429Y46765571D01*
X93614857Y46765571D01*
X93614857Y48289571D01*
X94122857Y48289571D01*
X94268000Y48217000D01*
X94340571Y48144429D01*
X94413143Y47999286D01*
X94413143Y47854143D01*
X94340571Y47709000D01*
X94268000Y47636429D01*
X94122857Y47563857D01*
X93614857Y47563857D01*
D22*
X74067501Y17917602D02*
X72337761Y17917602D01*
X72337761Y18331743D01*
X72420130Y18435278D01*
X72502499Y18487046D01*
X72667236Y18538814D01*
X72914341Y18538814D01*
X73079079Y18487046D01*
X73161447Y18435278D01*
X73243816Y18331743D01*
X73243816Y17917602D01*
X74067501Y19574166D02*
X74067501Y18952954D01*
X74067501Y19263560D02*
X72337761Y19263560D01*
X72584867Y19160025D01*
X72749604Y19056490D01*
X72831973Y18952954D01*
D15*
X71335429Y16016453D02*
X70609714Y15677787D01*
X71335429Y15435882D02*
X69811429Y15435882D01*
X69811429Y15822929D01*
X69884000Y15919691D01*
X69956571Y15968072D01*
X70101714Y16016453D01*
X70319429Y16016453D01*
X70464571Y15968072D01*
X70537143Y15919691D01*
X70609714Y15822929D01*
X70609714Y15435882D01*
X70537143Y16451882D02*
X70537143Y16790548D01*
X71335429Y16935691D02*
X71335429Y16451882D01*
X69811429Y16451882D01*
X69811429Y16935691D01*
X71262857Y17322739D02*
X71335429Y17467882D01*
X71335429Y17709786D01*
X71262857Y17806548D01*
X71190286Y17854929D01*
X71045143Y17903310D01*
X70900000Y17903310D01*
X70754857Y17854929D01*
X70682286Y17806548D01*
X70609714Y17709786D01*
X70537143Y17516263D01*
X70464571Y17419501D01*
X70392000Y17371120D01*
X70246857Y17322739D01*
X70101714Y17322739D01*
X69956571Y17371120D01*
X69884000Y17419501D01*
X69811429Y17516263D01*
X69811429Y17758167D01*
X69884000Y17903310D01*
X70537143Y18338739D02*
X70537143Y18677405D01*
X71335429Y18822548D02*
X71335429Y18338739D01*
X69811429Y18338739D01*
X69811429Y18822548D01*
X69811429Y19112834D02*
X69811429Y19693405D01*
X71335429Y19403120D02*
X69811429Y19403120D01*
X71480571Y19790167D02*
X71480571Y20564262D01*
X71262857Y20757786D02*
X71335429Y20902929D01*
X71335429Y21144833D01*
X71262857Y21241595D01*
X71190286Y21289976D01*
X71045143Y21338357D01*
X70900000Y21338357D01*
X70754857Y21289976D01*
X70682286Y21241595D01*
X70609714Y21144833D01*
X70537143Y20951310D01*
X70464571Y20854548D01*
X70392000Y20806167D01*
X70246857Y20757786D01*
X70101714Y20757786D01*
X69956571Y20806167D01*
X69884000Y20854548D01*
X69811429Y20951310D01*
X69811429Y21193214D01*
X69884000Y21338357D01*
X69811429Y21677024D02*
X71335429Y21918929D01*
X70246857Y22112452D01*
X71335429Y22305976D01*
X69811429Y22547881D01*
D11*
X69983000Y8668858D02*
X69910429Y8523715D01*
X69910429Y8306001D01*
X69983000Y8088286D01*
X70128143Y7943144D01*
X70273286Y7870572D01*
X70563571Y7798001D01*
X70781286Y7798001D01*
X71071571Y7870572D01*
X71216714Y7943144D01*
X71361857Y8088286D01*
X71434429Y8306001D01*
X71434429Y8451144D01*
X71361857Y8668858D01*
X71289286Y8741429D01*
X70781286Y8741429D01*
X70781286Y8451144D01*
X71434429Y9394572D02*
X69910429Y9394572D01*
X71434429Y10265429D01*
X69910429Y10265429D01*
X71434429Y10991143D02*
X69910429Y10991143D01*
X69910429Y11354000D01*
X69983000Y11571715D01*
X70128143Y11716857D01*
X70273286Y11789429D01*
X70563571Y11862000D01*
X70781286Y11862000D01*
X71071571Y11789429D01*
X71216714Y11716857D01*
X71361857Y11571715D01*
X71434429Y11354000D01*
X71434429Y10991143D01*
X70818357Y13092429D02*
X70818357Y14253572D01*
X71398929Y13673001D02*
X70237786Y13673001D01*
D22*
X143122602Y40957499D02*
X143122602Y42687239D01*
X143536743Y42687239D01*
X143640278Y42604870D01*
X143692046Y42522501D01*
X143743814Y42357764D01*
X143743814Y42110659D01*
X143692046Y41945921D01*
X143640278Y41863553D01*
X143536743Y41781184D01*
X143122602Y41781184D01*
X144675631Y42110659D02*
X144675631Y40957499D01*
X144416793Y42769607D02*
X144157954Y41534079D01*
X144830934Y41534079D01*
D15*
X142957381Y28350571D02*
X142957381Y29874571D01*
X143344428Y29874571D01*
X143441190Y29802000D01*
X143489571Y29729429D01*
X143537952Y29584286D01*
X143537952Y29366571D01*
X143489571Y29221429D01*
X143441190Y29148857D01*
X143344428Y29076286D01*
X142957381Y29076286D01*
X144166905Y29874571D02*
X144360428Y29874571D01*
X144457190Y29802000D01*
X144553952Y29656857D01*
X144602333Y29366571D01*
X144602333Y28858571D01*
X144553952Y28568286D01*
X144457190Y28423143D01*
X144360428Y28350571D01*
X144166905Y28350571D01*
X144070143Y28423143D01*
X143973381Y28568286D01*
X143925000Y28858571D01*
X143925000Y29366571D01*
X143973381Y29656857D01*
X144070143Y29802000D01*
X144166905Y29874571D01*
X144941000Y29874571D02*
X145182905Y28350571D01*
X145376428Y29439143D01*
X145569952Y28350571D01*
X145811857Y29874571D01*
X146198905Y29148857D02*
X146537571Y29148857D01*
X146682714Y28350571D02*
X146198905Y28350571D01*
X146198905Y29874571D01*
X146682714Y29874571D01*
X147698714Y28350571D02*
X147360048Y29076286D01*
X147118143Y28350571D02*
X147118143Y29874571D01*
X147505190Y29874571D01*
X147601952Y29802000D01*
X147650333Y29729429D01*
X147698714Y29584286D01*
X147698714Y29366571D01*
X147650333Y29221429D01*
X147601952Y29148857D01*
X147505190Y29076286D01*
X147118143Y29076286D01*
X147892238Y28205429D02*
X148666333Y28205429D01*
X148908238Y28350571D02*
X148908238Y29874571D01*
X149392048Y28350571D02*
X149392048Y29874571D01*
X149972619Y28350571D01*
X149972619Y29874571D01*
D11*
X150783000Y31688858D02*
X150710429Y31543715D01*
X150710429Y31326001D01*
X150783000Y31108286D01*
X150928143Y30963144D01*
X151073286Y30890572D01*
X151363571Y30818001D01*
X151581286Y30818001D01*
X151871571Y30890572D01*
X152016714Y30963144D01*
X152161857Y31108286D01*
X152234429Y31326001D01*
X152234429Y31471144D01*
X152161857Y31688858D01*
X152089286Y31761429D01*
X151581286Y31761429D01*
X151581286Y31471144D01*
X152234429Y32414572D02*
X150710429Y32414572D01*
X152234429Y33285429D01*
X150710429Y33285429D01*
X152234429Y34011143D02*
X150710429Y34011143D01*
X150710429Y34374000D01*
X150783000Y34591715D01*
X150928143Y34736857D01*
X151073286Y34809429D01*
X151363571Y34882000D01*
X151581286Y34882000D01*
X151871571Y34809429D01*
X152016714Y34736857D01*
X152161857Y34591715D01*
X152234429Y34374000D01*
X152234429Y34011143D01*
X151653857Y37349429D02*
X151653857Y38510572D01*
X152234429Y37930001D02*
X151073286Y37930001D01*
D22*
X71021800Y40269602D02*
X69286980Y40269602D01*
X69286980Y40683743D01*
X69369590Y40787278D01*
X69452200Y40839046D01*
X69617421Y40890814D01*
X69865253Y40890814D01*
X70030474Y40839046D01*
X70113084Y40787278D01*
X70195695Y40683743D01*
X70195695Y40269602D01*
X69286980Y41874398D02*
X69286980Y41356722D01*
X70113084Y41304954D01*
X70030474Y41356722D01*
X69947863Y41460257D01*
X69947863Y41719095D01*
X70030474Y41822631D01*
X70113084Y41874398D01*
X70278305Y41926166D01*
X70691358Y41926166D01*
X70856579Y41874398D01*
X70939189Y41822631D01*
X71021800Y41719095D01*
X71021800Y41460257D01*
X70939189Y41356722D01*
X70856579Y41304954D01*
D15*
X72151857Y24153524D02*
X72224429Y24298667D01*
X72224429Y24540571D01*
X72151857Y24637333D01*
X72079286Y24685714D01*
X71934143Y24734095D01*
X71789000Y24734095D01*
X71643857Y24685714D01*
X71571286Y24637333D01*
X71498714Y24540571D01*
X71426143Y24347048D01*
X71353571Y24250286D01*
X71281000Y24201905D01*
X71135857Y24153524D01*
X70990714Y24153524D01*
X70845571Y24201905D01*
X70773000Y24250286D01*
X70700429Y24347048D01*
X70700429Y24588952D01*
X70773000Y24734095D01*
X71426143Y25169524D02*
X71426143Y25508190D01*
X72224429Y25653333D02*
X72224429Y25169524D01*
X70700429Y25169524D01*
X70700429Y25653333D01*
X72224429Y26669333D02*
X71498714Y26330667D01*
X72224429Y26088762D02*
X70700429Y26088762D01*
X70700429Y26475809D01*
X70773000Y26572571D01*
X70845571Y26620952D01*
X70990714Y26669333D01*
X71208429Y26669333D01*
X71353571Y26620952D01*
X71426143Y26572571D01*
X71498714Y26475809D01*
X71498714Y26088762D01*
X72224429Y27104762D02*
X70700429Y27104762D01*
X71789000Y27540191D02*
X71789000Y28024000D01*
X72224429Y27443429D02*
X70700429Y27782096D01*
X72224429Y28120762D01*
X72224429Y28943238D02*
X72224429Y28459429D01*
X70700429Y28459429D01*
D22*
X80892602Y44132499D02*
X80892602Y45862239D01*
X81306743Y45862239D01*
X81410278Y45779870D01*
X81462046Y45697501D01*
X81513814Y45532764D01*
X81513814Y45285659D01*
X81462046Y45120921D01*
X81410278Y45038553D01*
X81306743Y44956184D01*
X80892602Y44956184D01*
X82445631Y45862239D02*
X82238560Y45862239D01*
X82135025Y45779870D01*
X82083257Y45697501D01*
X81979722Y45450396D01*
X81927954Y45120921D01*
X81927954Y44461973D01*
X81979722Y44297236D01*
X82031490Y44214867D01*
X82135025Y44132499D01*
X82342095Y44132499D01*
X82445631Y44214867D01*
X82497398Y44297236D01*
X82549166Y44461973D01*
X82549166Y44873816D01*
X82497398Y45038553D01*
X82445631Y45120921D01*
X82342095Y45203290D01*
X82135025Y45203290D01*
X82031490Y45120921D01*
X81979722Y45038553D01*
X81927954Y44873816D01*
D15*
X76034429Y30007620D02*
X74510429Y30007620D01*
X74510429Y30249525D01*
X74583000Y30394667D01*
X74728143Y30491429D01*
X74873286Y30539810D01*
X75163571Y30588191D01*
X75381286Y30588191D01*
X75671571Y30539810D01*
X75816714Y30491429D01*
X75961857Y30394667D01*
X76034429Y30249525D01*
X76034429Y30007620D01*
X75236143Y31023620D02*
X75236143Y31362286D01*
X76034429Y31507429D02*
X76034429Y31023620D01*
X74510429Y31023620D01*
X74510429Y31507429D01*
X74510429Y31797715D02*
X74510429Y32378286D01*
X76034429Y32088001D02*
X74510429Y32088001D01*
X75236143Y32716953D02*
X75236143Y33055619D01*
X76034429Y33200762D02*
X76034429Y32716953D01*
X74510429Y32716953D01*
X74510429Y33200762D01*
X75889286Y34216762D02*
X75961857Y34168381D01*
X76034429Y34023238D01*
X76034429Y33926476D01*
X75961857Y33781334D01*
X75816714Y33684572D01*
X75671571Y33636191D01*
X75381286Y33587810D01*
X75163571Y33587810D01*
X74873286Y33636191D01*
X74728143Y33684572D01*
X74583000Y33781334D01*
X74510429Y33926476D01*
X74510429Y34023238D01*
X74583000Y34168381D01*
X74655571Y34216762D01*
X74510429Y34507048D02*
X74510429Y35087619D01*
X76034429Y34797334D02*
X74510429Y34797334D01*
X76179571Y35184381D02*
X76179571Y35958476D01*
X76034429Y36200381D02*
X74510429Y36200381D01*
X76034429Y36684191D02*
X74510429Y36684191D01*
X76034429Y37264762D01*
X74510429Y37264762D01*
X76034429Y38280762D02*
X76034429Y37700191D01*
X76034429Y37990477D02*
X74510429Y37990477D01*
X74728143Y37893715D01*
X74873286Y37796953D01*
X74945857Y37700191D01*
D22*
X133122501Y-8625398D02*
X131392761Y-8625398D01*
X131392761Y-8211257D01*
X131475130Y-8107722D01*
X131557499Y-8055954D01*
X131722236Y-8004186D01*
X131969341Y-8004186D01*
X132134079Y-8055954D01*
X132216447Y-8107722D01*
X132298816Y-8211257D01*
X132298816Y-8625398D01*
X131392761Y-7641813D02*
X131392761Y-6917066D01*
X133122501Y-7382975D01*
D15*
X135823429Y-9032523D02*
X134299429Y-9032523D01*
X135388000Y-8693857D01*
X134299429Y-8355190D01*
X135823429Y-8355190D01*
X134299429Y-8016523D02*
X134299429Y-7435952D01*
X135823429Y-7726237D02*
X134299429Y-7726237D01*
X135823429Y-6565095D02*
X135823429Y-7145666D01*
X135823429Y-6855380D02*
X134299429Y-6855380D01*
X134517143Y-6952142D01*
X134662286Y-7048904D01*
X134734857Y-7145666D01*
D22*
X133122501Y-27675398D02*
X131392761Y-27675398D01*
X131392761Y-27261257D01*
X131475130Y-27157722D01*
X131557499Y-27105954D01*
X131722236Y-27054186D01*
X131969341Y-27054186D01*
X132134079Y-27105954D01*
X132216447Y-27157722D01*
X132298816Y-27261257D01*
X132298816Y-27675398D01*
X132134079Y-26432975D02*
X132051710Y-26536510D01*
X131969341Y-26588278D01*
X131804604Y-26640046D01*
X131722236Y-26640046D01*
X131557499Y-26588278D01*
X131475130Y-26536510D01*
X131392761Y-26432975D01*
X131392761Y-26225905D01*
X131475130Y-26122369D01*
X131557499Y-26070602D01*
X131722236Y-26018834D01*
X131804604Y-26018834D01*
X131969341Y-26070602D01*
X132051710Y-26122369D01*
X132134079Y-26225905D01*
X132134079Y-26432975D01*
X132216447Y-26536510D01*
X132298816Y-26588278D01*
X132463553Y-26640046D01*
X132793027Y-26640046D01*
X132957764Y-26588278D01*
X133040133Y-26536510D01*
X133122501Y-26432975D01*
X133122501Y-26225905D01*
X133040133Y-26122369D01*
X132957764Y-26070602D01*
X132793027Y-26018834D01*
X132463553Y-26018834D01*
X132298816Y-26070602D01*
X132216447Y-26122369D01*
X132134079Y-26225905D01*
D15*
X135823429Y-28082523D02*
X134299429Y-28082523D01*
X135388000Y-27743857D01*
X134299429Y-27405190D01*
X135823429Y-27405190D01*
X134299429Y-27066523D02*
X134299429Y-26485952D01*
X135823429Y-26776237D02*
X134299429Y-26776237D01*
X134444571Y-26195666D02*
X134372000Y-26147285D01*
X134299429Y-26050523D01*
X134299429Y-25808619D01*
X134372000Y-25711857D01*
X134444571Y-25663476D01*
X134589714Y-25615095D01*
X134734857Y-25615095D01*
X134952571Y-25663476D01*
X135823429Y-26244047D01*
X135823429Y-25615095D01*
D22*
X133122501Y-45455398D02*
X131392761Y-45455398D01*
X131392761Y-45041257D01*
X131475130Y-44937722D01*
X131557499Y-44885954D01*
X131722236Y-44834186D01*
X131969341Y-44834186D01*
X132134079Y-44885954D01*
X132216447Y-44937722D01*
X132298816Y-45041257D01*
X132298816Y-45455398D01*
X133122501Y-44316510D02*
X133122501Y-44109440D01*
X133040133Y-44005905D01*
X132957764Y-43954137D01*
X132710659Y-43850602D01*
X132381184Y-43798834D01*
X131722236Y-43798834D01*
X131557499Y-43850602D01*
X131475130Y-43902369D01*
X131392761Y-44005905D01*
X131392761Y-44212975D01*
X131475130Y-44316510D01*
X131557499Y-44368278D01*
X131722236Y-44420046D01*
X132134079Y-44420046D01*
X132298816Y-44368278D01*
X132381184Y-44316510D01*
X132463553Y-44212975D01*
X132463553Y-44005905D01*
X132381184Y-43902369D01*
X132298816Y-43850602D01*
X132134079Y-43798834D01*
D15*
X135823429Y-45862523D02*
X134299429Y-45862523D01*
X135388000Y-45523857D01*
X134299429Y-45185190D01*
X135823429Y-45185190D01*
X134299429Y-44846523D02*
X134299429Y-44265952D01*
X135823429Y-44556237D02*
X134299429Y-44556237D01*
X134299429Y-44024047D02*
X134299429Y-43395095D01*
X134880000Y-43733761D01*
X134880000Y-43588619D01*
X134952571Y-43491857D01*
X135025143Y-43443476D01*
X135170286Y-43395095D01*
X135533143Y-43395095D01*
X135678286Y-43443476D01*
X135750857Y-43491857D01*
X135823429Y-43588619D01*
X135823429Y-43878904D01*
X135750857Y-43975666D01*
X135678286Y-44024047D01*
D22*
X125248501Y-64515074D02*
X123518761Y-64515074D01*
X123518761Y-64100933D01*
X123601130Y-63997398D01*
X123683499Y-63945630D01*
X123848236Y-63893862D01*
X124095341Y-63893862D01*
X124260079Y-63945630D01*
X124342447Y-63997398D01*
X124424816Y-64100933D01*
X124424816Y-64515074D01*
X125248501Y-62858510D02*
X125248501Y-63479722D01*
X125248501Y-63169116D02*
X123518761Y-63169116D01*
X123765867Y-63272651D01*
X123930604Y-63376186D01*
X124012973Y-63479722D01*
X123518761Y-62185531D02*
X123518761Y-62081996D01*
X123601130Y-61978461D01*
X123683499Y-61926693D01*
X123848236Y-61874926D01*
X124177710Y-61823158D01*
X124589553Y-61823158D01*
X124919027Y-61874926D01*
X125083764Y-61926693D01*
X125166133Y-61978461D01*
X125248501Y-62081996D01*
X125248501Y-62185531D01*
X125166133Y-62289067D01*
X125083764Y-62340834D01*
X124919027Y-62392602D01*
X124589553Y-62444370D01*
X124177710Y-62444370D01*
X123848236Y-62392602D01*
X123683499Y-62340834D01*
X123601130Y-62289067D01*
X123518761Y-62185531D01*
D15*
X127949429Y-64404523D02*
X126425429Y-64404523D01*
X127514000Y-64065857D01*
X126425429Y-63727190D01*
X127949429Y-63727190D01*
X126425429Y-63388523D02*
X126425429Y-62807952D01*
X127949429Y-63098237D02*
X126425429Y-63098237D01*
X126933429Y-62033857D02*
X127949429Y-62033857D01*
X126352857Y-62275761D02*
X127441429Y-62517666D01*
X127441429Y-61888714D01*
D22*
X103912501Y-9143074D02*
X102182761Y-9143074D01*
X102182761Y-8728933D01*
X102265130Y-8625398D01*
X102347499Y-8573630D01*
X102512236Y-8521862D01*
X102759341Y-8521862D01*
X102924079Y-8573630D01*
X103006447Y-8625398D01*
X103088816Y-8728933D01*
X103088816Y-9143074D01*
X103912501Y-7486510D02*
X103912501Y-8107722D01*
X103912501Y-7797116D02*
X102182761Y-7797116D01*
X102429867Y-7900651D01*
X102594604Y-8004186D01*
X102676973Y-8107722D01*
X103912501Y-6451158D02*
X103912501Y-7072370D01*
X103912501Y-6761764D02*
X102182761Y-6761764D01*
X102429867Y-6865299D01*
X102594604Y-6968834D01*
X102676973Y-7072370D01*
D15*
X106613429Y-9032523D02*
X105089429Y-9032523D01*
X106178000Y-8693857D01*
X105089429Y-8355190D01*
X106613429Y-8355190D01*
X105089429Y-8016523D02*
X105089429Y-7435952D01*
X106613429Y-7726237D02*
X105089429Y-7726237D01*
X105089429Y-6613476D02*
X105089429Y-7097285D01*
X105815143Y-7145666D01*
X105742571Y-7097285D01*
X105670000Y-7000523D01*
X105670000Y-6758619D01*
X105742571Y-6661857D01*
X105815143Y-6613476D01*
X105960286Y-6565095D01*
X106323143Y-6565095D01*
X106468286Y-6613476D01*
X106540857Y-6661857D01*
X106613429Y-6758619D01*
X106613429Y-7000523D01*
X106540857Y-7097285D01*
X106468286Y-7145666D01*
D22*
X103912501Y-27558074D02*
X102182761Y-27558074D01*
X102182761Y-27143933D01*
X102265130Y-27040398D01*
X102347499Y-26988630D01*
X102512236Y-26936862D01*
X102759341Y-26936862D01*
X102924079Y-26988630D01*
X103006447Y-27040398D01*
X103088816Y-27143933D01*
X103088816Y-27558074D01*
X103912501Y-25901510D02*
X103912501Y-26522722D01*
X103912501Y-26212116D02*
X102182761Y-26212116D01*
X102429867Y-26315651D01*
X102594604Y-26419186D01*
X102676973Y-26522722D01*
X102347499Y-25487370D02*
X102265130Y-25435602D01*
X102182761Y-25332067D01*
X102182761Y-25073229D01*
X102265130Y-24969693D01*
X102347499Y-24917926D01*
X102512236Y-24866158D01*
X102676973Y-24866158D01*
X102924079Y-24917926D01*
X103912501Y-25539137D01*
X103912501Y-24866158D01*
D15*
X106613429Y-27447523D02*
X105089429Y-27447523D01*
X106178000Y-27108857D01*
X105089429Y-26770190D01*
X106613429Y-26770190D01*
X105089429Y-26431523D02*
X105089429Y-25850952D01*
X106613429Y-26141237D02*
X105089429Y-26141237D01*
X105089429Y-25076857D02*
X105089429Y-25270380D01*
X105162000Y-25367142D01*
X105234571Y-25415523D01*
X105452286Y-25512285D01*
X105742571Y-25560666D01*
X106323143Y-25560666D01*
X106468286Y-25512285D01*
X106540857Y-25463904D01*
X106613429Y-25367142D01*
X106613429Y-25173619D01*
X106540857Y-25076857D01*
X106468286Y-25028476D01*
X106323143Y-24980095D01*
X105960286Y-24980095D01*
X105815143Y-25028476D01*
X105742571Y-25076857D01*
X105670000Y-25173619D01*
X105670000Y-25367142D01*
X105742571Y-25463904D01*
X105815143Y-25512285D01*
X105960286Y-25560666D01*
D22*
X103912501Y-45973074D02*
X102182761Y-45973074D01*
X102182761Y-45558933D01*
X102265130Y-45455398D01*
X102347499Y-45403630D01*
X102512236Y-45351862D01*
X102759341Y-45351862D01*
X102924079Y-45403630D01*
X103006447Y-45455398D01*
X103088816Y-45558933D01*
X103088816Y-45973074D01*
X103912501Y-44316510D02*
X103912501Y-44937722D01*
X103912501Y-44627116D02*
X102182761Y-44627116D01*
X102429867Y-44730651D01*
X102594604Y-44834186D01*
X102676973Y-44937722D01*
X102182761Y-43954137D02*
X102182761Y-43281158D01*
X102841710Y-43643531D01*
X102841710Y-43488229D01*
X102924079Y-43384693D01*
X103006447Y-43332926D01*
X103171184Y-43281158D01*
X103583027Y-43281158D01*
X103747764Y-43332926D01*
X103830133Y-43384693D01*
X103912501Y-43488229D01*
X103912501Y-43798834D01*
X103830133Y-43902370D01*
X103747764Y-43954137D01*
D15*
X106613429Y-45862523D02*
X105089429Y-45862523D01*
X106178000Y-45523857D01*
X105089429Y-45185190D01*
X106613429Y-45185190D01*
X105089429Y-44846523D02*
X105089429Y-44265952D01*
X106613429Y-44556237D02*
X105089429Y-44556237D01*
X106613429Y-43395095D02*
X106613429Y-43975666D01*
X106613429Y-43685380D02*
X105089429Y-43685380D01*
X105307143Y-43782142D01*
X105452286Y-43878904D01*
X105524857Y-43975666D01*
D22*
X103912501Y-64388074D02*
X102182761Y-64388074D01*
X102182761Y-63973933D01*
X102265130Y-63870398D01*
X102347499Y-63818630D01*
X102512236Y-63766862D01*
X102759341Y-63766862D01*
X102924079Y-63818630D01*
X103006447Y-63870398D01*
X103088816Y-63973933D01*
X103088816Y-64388074D01*
X103912501Y-62731510D02*
X103912501Y-63352722D01*
X103912501Y-63042116D02*
X102182761Y-63042116D01*
X102429867Y-63145651D01*
X102594604Y-63249186D01*
X102676973Y-63352722D01*
X102759341Y-61799693D02*
X103912501Y-61799693D01*
X102100393Y-62058531D02*
X103335921Y-62317370D01*
X103335921Y-61644390D01*
D15*
X106613429Y-64277523D02*
X105089429Y-64277523D01*
X106178000Y-63938857D01*
X105089429Y-63600190D01*
X106613429Y-63600190D01*
X105089429Y-63261523D02*
X105089429Y-62680952D01*
X106613429Y-62971237D02*
X105089429Y-62971237D01*
X105234571Y-62390666D02*
X105162000Y-62342285D01*
X105089429Y-62245523D01*
X105089429Y-62003619D01*
X105162000Y-61906857D01*
X105234571Y-61858476D01*
X105379714Y-61810095D01*
X105524857Y-61810095D01*
X105742571Y-61858476D01*
X106613429Y-62439047D01*
X106613429Y-61810095D01*
D22*
X74702501Y-9143074D02*
X72972761Y-9143074D01*
X72972761Y-8728933D01*
X73055130Y-8625398D01*
X73137499Y-8573630D01*
X73302236Y-8521862D01*
X73549341Y-8521862D01*
X73714079Y-8573630D01*
X73796447Y-8625398D01*
X73878816Y-8728933D01*
X73878816Y-9143074D01*
X74702501Y-7486510D02*
X74702501Y-8107722D01*
X74702501Y-7797116D02*
X72972761Y-7797116D01*
X73219867Y-7900651D01*
X73384604Y-8004186D01*
X73466973Y-8107722D01*
X72972761Y-6502926D02*
X72972761Y-7020602D01*
X73796447Y-7072370D01*
X73714079Y-7020602D01*
X73631710Y-6917067D01*
X73631710Y-6658229D01*
X73714079Y-6554693D01*
X73796447Y-6502926D01*
X73961184Y-6451158D01*
X74373027Y-6451158D01*
X74537764Y-6502926D01*
X74620133Y-6554693D01*
X74702501Y-6658229D01*
X74702501Y-6917067D01*
X74620133Y-7020602D01*
X74537764Y-7072370D01*
D15*
X77403429Y-9032523D02*
X75879429Y-9032523D01*
X76968000Y-8693857D01*
X75879429Y-8355190D01*
X77403429Y-8355190D01*
X75879429Y-8016523D02*
X75879429Y-7435952D01*
X77403429Y-7726237D02*
X75879429Y-7726237D01*
X75879429Y-7194047D02*
X75879429Y-6565095D01*
X76460000Y-6903761D01*
X76460000Y-6758619D01*
X76532571Y-6661857D01*
X76605143Y-6613476D01*
X76750286Y-6565095D01*
X77113143Y-6565095D01*
X77258286Y-6613476D01*
X77330857Y-6661857D01*
X77403429Y-6758619D01*
X77403429Y-7048904D01*
X77330857Y-7145666D01*
X77258286Y-7194047D01*
D22*
X74702501Y-27558074D02*
X72972761Y-27558074D01*
X72972761Y-27143933D01*
X73055130Y-27040398D01*
X73137499Y-26988630D01*
X73302236Y-26936862D01*
X73549341Y-26936862D01*
X73714079Y-26988630D01*
X73796447Y-27040398D01*
X73878816Y-27143933D01*
X73878816Y-27558074D01*
X74702501Y-25901510D02*
X74702501Y-26522722D01*
X74702501Y-26212116D02*
X72972761Y-26212116D01*
X73219867Y-26315651D01*
X73384604Y-26419186D01*
X73466973Y-26522722D01*
X72972761Y-24969693D02*
X72972761Y-25176764D01*
X73055130Y-25280299D01*
X73137499Y-25332067D01*
X73384604Y-25435602D01*
X73714079Y-25487370D01*
X74373027Y-25487370D01*
X74537764Y-25435602D01*
X74620133Y-25383834D01*
X74702501Y-25280299D01*
X74702501Y-25073229D01*
X74620133Y-24969693D01*
X74537764Y-24917926D01*
X74373027Y-24866158D01*
X73961184Y-24866158D01*
X73796447Y-24917926D01*
X73714079Y-24969693D01*
X73631710Y-25073229D01*
X73631710Y-25280299D01*
X73714079Y-25383834D01*
X73796447Y-25435602D01*
X73961184Y-25487370D01*
D15*
X77403429Y-27447523D02*
X75879429Y-27447523D01*
X76968000Y-27108857D01*
X75879429Y-26770190D01*
X77403429Y-26770190D01*
X75879429Y-26431523D02*
X75879429Y-25850952D01*
X77403429Y-26141237D02*
X75879429Y-26141237D01*
X76387429Y-25076857D02*
X77403429Y-25076857D01*
X75806857Y-25318761D02*
X76895429Y-25560666D01*
X76895429Y-24931714D01*
D22*
X74702501Y-45973074D02*
X72972761Y-45973074D01*
X72972761Y-45558933D01*
X73055130Y-45455398D01*
X73137499Y-45403630D01*
X73302236Y-45351862D01*
X73549341Y-45351862D01*
X73714079Y-45403630D01*
X73796447Y-45455398D01*
X73878816Y-45558933D01*
X73878816Y-45973074D01*
X74702501Y-44316510D02*
X74702501Y-44937722D01*
X74702501Y-44627116D02*
X72972761Y-44627116D01*
X73219867Y-44730651D01*
X73384604Y-44834186D01*
X73466973Y-44937722D01*
X72972761Y-43954137D02*
X72972761Y-43229390D01*
X74702501Y-43695299D01*
D15*
X77403429Y-45862523D02*
X75879429Y-45862523D01*
X76968000Y-45523857D01*
X75879429Y-45185190D01*
X77403429Y-45185190D01*
X75879429Y-44846523D02*
X75879429Y-44265952D01*
X77403429Y-44556237D02*
X75879429Y-44556237D01*
X75879429Y-43443476D02*
X75879429Y-43927285D01*
X76605143Y-43975666D01*
X76532571Y-43927285D01*
X76460000Y-43830523D01*
X76460000Y-43588619D01*
X76532571Y-43491857D01*
X76605143Y-43443476D01*
X76750286Y-43395095D01*
X77113143Y-43395095D01*
X77258286Y-43443476D01*
X77330857Y-43491857D01*
X77403429Y-43588619D01*
X77403429Y-43830523D01*
X77330857Y-43927285D01*
X77258286Y-43975666D01*
D22*
X77242501Y-64388074D02*
X75512761Y-64388074D01*
X75512761Y-63973933D01*
X75595130Y-63870398D01*
X75677499Y-63818630D01*
X75842236Y-63766862D01*
X76089341Y-63766862D01*
X76254079Y-63818630D01*
X76336447Y-63870398D01*
X76418816Y-63973933D01*
X76418816Y-64388074D01*
X77242501Y-62731510D02*
X77242501Y-63352722D01*
X77242501Y-63042116D02*
X75512761Y-63042116D01*
X75759867Y-63145651D01*
X75924604Y-63249186D01*
X76006973Y-63352722D01*
X76254079Y-62110299D02*
X76171710Y-62213834D01*
X76089341Y-62265602D01*
X75924604Y-62317370D01*
X75842236Y-62317370D01*
X75677499Y-62265602D01*
X75595130Y-62213834D01*
X75512761Y-62110299D01*
X75512761Y-61903229D01*
X75595130Y-61799693D01*
X75677499Y-61747926D01*
X75842236Y-61696158D01*
X75924604Y-61696158D01*
X76089341Y-61747926D01*
X76171710Y-61799693D01*
X76254079Y-61903229D01*
X76254079Y-62110299D01*
X76336447Y-62213834D01*
X76418816Y-62265602D01*
X76583553Y-62317370D01*
X76913027Y-62317370D01*
X77077764Y-62265602D01*
X77160133Y-62213834D01*
X77242501Y-62110299D01*
X77242501Y-61903229D01*
X77160133Y-61799693D01*
X77077764Y-61747926D01*
X76913027Y-61696158D01*
X76583553Y-61696158D01*
X76418816Y-61747926D01*
X76336447Y-61799693D01*
X76254079Y-61903229D01*
D15*
X79943429Y-64277523D02*
X78419429Y-64277523D01*
X79508000Y-63938857D01*
X78419429Y-63600190D01*
X79943429Y-63600190D01*
X78419429Y-63261523D02*
X78419429Y-62680952D01*
X79943429Y-62971237D02*
X78419429Y-62971237D01*
X78419429Y-61906857D02*
X78419429Y-62100380D01*
X78492000Y-62197142D01*
X78564571Y-62245523D01*
X78782286Y-62342285D01*
X79072571Y-62390666D01*
X79653143Y-62390666D01*
X79798286Y-62342285D01*
X79870857Y-62293904D01*
X79943429Y-62197142D01*
X79943429Y-62003619D01*
X79870857Y-61906857D01*
X79798286Y-61858476D01*
X79653143Y-61810095D01*
X79290286Y-61810095D01*
X79145143Y-61858476D01*
X79072571Y-61906857D01*
X79000000Y-62003619D01*
X79000000Y-62197142D01*
X79072571Y-62293904D01*
X79145143Y-62342285D01*
X79290286Y-62390666D01*
D22*
X142604926Y11747499D02*
X142604926Y13477239D01*
X143019067Y13477239D01*
X143122602Y13394870D01*
X143174370Y13312501D01*
X143226138Y13147764D01*
X143226138Y12900659D01*
X143174370Y12735921D01*
X143122602Y12653553D01*
X143019067Y12571184D01*
X142604926Y12571184D01*
X144261490Y11747499D02*
X143640278Y11747499D01*
X143950884Y11747499D02*
X143950884Y13477239D01*
X143847349Y13230133D01*
X143743814Y13065396D01*
X143640278Y12983027D01*
X144779166Y11747499D02*
X144986236Y11747499D01*
X145089771Y11829867D01*
X145141539Y11912236D01*
X145245074Y12159341D01*
X145296842Y12488816D01*
X145296842Y13147764D01*
X145245074Y13312501D01*
X145193307Y13394870D01*
X145089771Y13477239D01*
X144882701Y13477239D01*
X144779166Y13394870D01*
X144727398Y13312501D01*
X144675630Y13147764D01*
X144675630Y12735921D01*
X144727398Y12571184D01*
X144779166Y12488816D01*
X144882701Y12406447D01*
X145089771Y12406447D01*
X145193307Y12488816D01*
X145245074Y12571184D01*
X145296842Y12735921D01*
D15*
X142280048Y14380571D02*
X142280048Y15904571D01*
X142667095Y15904571D01*
X142763857Y15832000D01*
X142812238Y15759429D01*
X142860619Y15614286D01*
X142860619Y15396571D01*
X142812238Y15251429D01*
X142763857Y15178857D01*
X142667095Y15106286D01*
X142280048Y15106286D01*
X143489572Y15904571D02*
X143683095Y15904571D01*
X143779857Y15832000D01*
X143876619Y15686857D01*
X143925000Y15396571D01*
X143925000Y14888571D01*
X143876619Y14598286D01*
X143779857Y14453143D01*
X143683095Y14380571D01*
X143489572Y14380571D01*
X143392810Y14453143D01*
X143296048Y14598286D01*
X143247667Y14888571D01*
X143247667Y15396571D01*
X143296048Y15686857D01*
X143392810Y15832000D01*
X143489572Y15904571D01*
X144263667Y15904571D02*
X144505572Y14380571D01*
X144699095Y15469143D01*
X144892619Y14380571D01*
X145134524Y15904571D01*
X145521572Y15178857D02*
X145860238Y15178857D01*
X146005381Y14380571D02*
X145521572Y14380571D01*
X145521572Y15904571D01*
X146005381Y15904571D01*
X147021381Y14380571D02*
X146682715Y15106286D01*
X146440810Y14380571D02*
X146440810Y15904571D01*
X146827857Y15904571D01*
X146924619Y15832000D01*
X146973000Y15759429D01*
X147021381Y15614286D01*
X147021381Y15396571D01*
X146973000Y15251429D01*
X146924619Y15178857D01*
X146827857Y15106286D01*
X146440810Y15106286D01*
X147214905Y14235429D02*
X147989000Y14235429D01*
X148424429Y15904571D02*
X148617952Y15904571D01*
X148714714Y15832000D01*
X148811476Y15686857D01*
X148859857Y15396571D01*
X148859857Y14888571D01*
X148811476Y14598286D01*
X148714714Y14453143D01*
X148617952Y14380571D01*
X148424429Y14380571D01*
X148327667Y14453143D01*
X148230905Y14598286D01*
X148182524Y14888571D01*
X148182524Y15396571D01*
X148230905Y15686857D01*
X148327667Y15832000D01*
X148424429Y15904571D01*
X149295286Y15904571D02*
X149295286Y14670857D01*
X149343667Y14525714D01*
X149392048Y14453143D01*
X149488810Y14380571D01*
X149682333Y14380571D01*
X149779095Y14453143D01*
X149827476Y14525714D01*
X149875857Y14670857D01*
X149875857Y15904571D01*
X150214524Y15904571D02*
X150795095Y15904571D01*
X150504810Y14380571D02*
X150504810Y15904571D01*
D11*
X150783000Y18353858D02*
X150710429Y18208715D01*
X150710429Y17991001D01*
X150783000Y17773286D01*
X150928143Y17628144D01*
X151073286Y17555572D01*
X151363571Y17483001D01*
X151581286Y17483001D01*
X151871571Y17555572D01*
X152016714Y17628144D01*
X152161857Y17773286D01*
X152234429Y17991001D01*
X152234429Y18136144D01*
X152161857Y18353858D01*
X152089286Y18426429D01*
X151581286Y18426429D01*
X151581286Y18136144D01*
X152234429Y19079572D02*
X150710429Y19079572D01*
X152234429Y19950429D01*
X150710429Y19950429D01*
X152234429Y20676143D02*
X150710429Y20676143D01*
X150710429Y21039000D01*
X150783000Y21256715D01*
X150928143Y21401857D01*
X151073286Y21474429D01*
X151363571Y21547000D01*
X151581286Y21547000D01*
X151871571Y21474429D01*
X152016714Y21401857D01*
X152161857Y21256715D01*
X152234429Y21039000D01*
X152234429Y20676143D01*
X151653857Y24014429D02*
X151653857Y25175572D01*
X152234429Y24595001D02*
X151073286Y24595001D01*
D20*
X106936976Y14698333D02*
X106271738Y14275000D01*
X106936976Y13972619D02*
X105539976Y13972619D01*
X105539976Y14456428D01*
X105606500Y14577381D01*
X105673024Y14637857D01*
X105806071Y14698333D01*
X106005643Y14698333D01*
X106138690Y14637857D01*
X106205214Y14577381D01*
X106271738Y14456428D01*
X106271738Y13972619D01*
X106936976Y15907857D02*
X106936976Y15182143D01*
X106936976Y15545000D02*
X105539976Y15545000D01*
X105739548Y15424048D01*
X105872595Y15303095D01*
X105939119Y15182143D01*
X109476976Y14698333D02*
X108811738Y14275000D01*
X109476976Y13972619D02*
X108079976Y13972619D01*
X108079976Y14456428D01*
X108146500Y14577381D01*
X108213024Y14637857D01*
X108346071Y14698333D01*
X108545643Y14698333D01*
X108678690Y14637857D01*
X108745214Y14577381D01*
X108811738Y14456428D01*
X108811738Y13972619D01*
X108079976Y15121667D02*
X108079976Y15907857D01*
X108612167Y15484524D01*
X108612167Y15665952D01*
X108678690Y15786905D01*
X108745214Y15847381D01*
X108878262Y15907857D01*
X109210881Y15907857D01*
X109343929Y15847381D01*
X109410452Y15786905D01*
X109476976Y15665952D01*
X109476976Y15303095D01*
X109410452Y15182143D01*
X109343929Y15121667D01*
X112016976Y14698333D02*
X111351738Y14275000D01*
X112016976Y13972619D02*
X110619976Y13972619D01*
X110619976Y14456428D01*
X110686500Y14577381D01*
X110753024Y14637857D01*
X110886071Y14698333D01*
X111085643Y14698333D01*
X111218690Y14637857D01*
X111285214Y14577381D01*
X111351738Y14456428D01*
X111351738Y13972619D01*
X110619976Y15847381D02*
X110619976Y15242619D01*
X111285214Y15182143D01*
X111218690Y15242619D01*
X111152167Y15363571D01*
X111152167Y15665952D01*
X111218690Y15786905D01*
X111285214Y15847381D01*
X111418262Y15907857D01*
X111750881Y15907857D01*
X111883929Y15847381D01*
X111950452Y15786905D01*
X112016976Y15665952D01*
X112016976Y15363571D01*
X111950452Y15242619D01*
X111883929Y15182143D01*
X114556976Y14698333D02*
X113891738Y14275000D01*
X114556976Y13972619D02*
X113159976Y13972619D01*
X113159976Y14456428D01*
X113226500Y14577381D01*
X113293024Y14637857D01*
X113426071Y14698333D01*
X113625643Y14698333D01*
X113758690Y14637857D01*
X113825214Y14577381D01*
X113891738Y14456428D01*
X113891738Y13972619D01*
X113159976Y15121667D02*
X113159976Y15968333D01*
X114556976Y15424048D01*
X82789619Y13050096D02*
X81773619Y13050096D01*
X81773619Y13292001D01*
X81822000Y13437143D01*
X81918762Y13533905D01*
X82015524Y13582286D01*
X82209048Y13630667D01*
X82354190Y13630667D01*
X82547714Y13582286D01*
X82644476Y13533905D01*
X82741238Y13437143D01*
X82789619Y13292001D01*
X82789619Y13050096D01*
X81870381Y14017715D02*
X81822000Y14066096D01*
X81773619Y14162858D01*
X81773619Y14404762D01*
X81822000Y14501524D01*
X81870381Y14549905D01*
X81967143Y14598286D01*
X82063905Y14598286D01*
X82209048Y14549905D01*
X82789619Y13969334D01*
X82789619Y14598286D01*
D23*
X144714215Y-1494429D02*
X144714215Y29571D01*
X145911644Y-1349286D02*
X145857215Y-1421857D01*
X145693929Y-1494429D01*
X145585072Y-1494429D01*
X145421787Y-1421857D01*
X145312929Y-1276714D01*
X145258501Y-1131571D01*
X145204072Y-841286D01*
X145204072Y-623571D01*
X145258501Y-333286D01*
X145312929Y-188143D01*
X145421787Y-43000D01*
X145585072Y29571D01*
X145693929Y29571D01*
X145857215Y-43000D01*
X145911644Y-115571D01*
X147000215Y-1494429D02*
X146347072Y-1494429D01*
X146673644Y-1494429D02*
X146673644Y29571D01*
X146564787Y-188143D01*
X146455929Y-333286D01*
X146347072Y-405857D01*
D11*
D23*
X134063572Y2409571D02*
X134063572Y1175857D01*
X134118000Y1030714D01*
X134172429Y958143D01*
X134281286Y885571D01*
X134499000Y885571D01*
X134607858Y958143D01*
X134662286Y1030714D01*
X134716715Y1175857D01*
X134716715Y2409571D01*
X135805287Y885571D02*
X135261001Y885571D01*
X135261001Y2409571D01*
X136186287Y885571D02*
X136186287Y2409571D01*
X136839430Y885571D01*
X136839430Y2409571D01*
X137329287Y2264429D02*
X137383716Y2337000D01*
X137492573Y2409571D01*
X137764716Y2409571D01*
X137873573Y2337000D01*
X137928002Y2264429D01*
X137982430Y2119286D01*
X137982430Y1974143D01*
X137928002Y1756429D01*
X137274859Y885571D01*
X137982430Y885571D01*
X138690001Y2409571D02*
X138798858Y2409571D01*
X138907715Y2337000D01*
X138962144Y2264429D01*
X139016573Y2119286D01*
X139071001Y1829000D01*
X139071001Y1466143D01*
X139016573Y1175857D01*
X138962144Y1030714D01*
X138907715Y958143D01*
X138798858Y885571D01*
X138690001Y885571D01*
X138581144Y958143D01*
X138526715Y1030714D01*
X138472287Y1175857D01*
X138417858Y1466143D01*
X138417858Y1829000D01*
X138472287Y2119286D01*
X138526715Y2264429D01*
X138581144Y2337000D01*
X138690001Y2409571D01*
X139778572Y2409571D02*
X139887429Y2409571D01*
X139996286Y2337000D01*
X140050715Y2264429D01*
X140105144Y2119286D01*
X140159572Y1829000D01*
X140159572Y1466143D01*
X140105144Y1175857D01*
X140050715Y1030714D01*
X139996286Y958143D01*
X139887429Y885571D01*
X139778572Y885571D01*
X139669715Y958143D01*
X139615286Y1030714D01*
X139560858Y1175857D01*
X139506429Y1466143D01*
X139506429Y1829000D01*
X139560858Y2119286D01*
X139615286Y2264429D01*
X139669715Y2337000D01*
X139778572Y2409571D01*
X140540572Y2409571D02*
X141248143Y2409571D01*
X140867143Y1829000D01*
X141030429Y1829000D01*
X141139286Y1756429D01*
X141193715Y1683857D01*
X141248143Y1538714D01*
X141248143Y1175857D01*
X141193715Y1030714D01*
X141139286Y958143D01*
X141030429Y885571D01*
X140703857Y885571D01*
X140595000Y958143D01*
X140540572Y1030714D01*
X141683571Y1321000D02*
X142227857Y1321000D01*
X141574714Y885571D02*
X141955714Y2409571D01*
X142336714Y885571D01*
X142717714Y885571D02*
X142717714Y2409571D01*
X142989857Y2409571D01*
X143153142Y2337000D01*
X143262000Y2191857D01*
X143316428Y2046714D01*
X143370857Y1756429D01*
X143370857Y1538714D01*
X143316428Y1248429D01*
X143262000Y1103286D01*
X143153142Y958143D01*
X142989857Y885571D01*
X142717714Y885571D01*
D11*
D23*
X144714215Y-19274429D02*
X144714215Y-17750429D01*
X145911644Y-19129286D02*
X145857215Y-19201857D01*
X145693929Y-19274429D01*
X145585072Y-19274429D01*
X145421787Y-19201857D01*
X145312929Y-19056714D01*
X145258501Y-18911571D01*
X145204072Y-18621286D01*
X145204072Y-18403571D01*
X145258501Y-18113286D01*
X145312929Y-17968143D01*
X145421787Y-17823000D01*
X145585072Y-17750429D01*
X145693929Y-17750429D01*
X145857215Y-17823000D01*
X145911644Y-17895571D01*
X146347072Y-17895571D02*
X146401501Y-17823000D01*
X146510358Y-17750429D01*
X146782501Y-17750429D01*
X146891358Y-17823000D01*
X146945787Y-17895571D01*
X147000215Y-18040714D01*
X147000215Y-18185857D01*
X146945787Y-18403571D01*
X146292644Y-19274429D01*
X147000215Y-19274429D01*
D11*
D23*
X134063572Y-15370429D02*
X134063572Y-16604143D01*
X134118000Y-16749286D01*
X134172429Y-16821857D01*
X134281286Y-16894429D01*
X134499000Y-16894429D01*
X134607858Y-16821857D01*
X134662286Y-16749286D01*
X134716715Y-16604143D01*
X134716715Y-15370429D01*
X135805287Y-16894429D02*
X135261001Y-16894429D01*
X135261001Y-15370429D01*
X136186287Y-16894429D02*
X136186287Y-15370429D01*
X136839430Y-16894429D01*
X136839430Y-15370429D01*
X137329287Y-15515571D02*
X137383716Y-15443000D01*
X137492573Y-15370429D01*
X137764716Y-15370429D01*
X137873573Y-15443000D01*
X137928002Y-15515571D01*
X137982430Y-15660714D01*
X137982430Y-15805857D01*
X137928002Y-16023571D01*
X137274859Y-16894429D01*
X137982430Y-16894429D01*
X138690001Y-15370429D02*
X138798858Y-15370429D01*
X138907715Y-15443000D01*
X138962144Y-15515571D01*
X139016573Y-15660714D01*
X139071001Y-15951000D01*
X139071001Y-16313857D01*
X139016573Y-16604143D01*
X138962144Y-16749286D01*
X138907715Y-16821857D01*
X138798858Y-16894429D01*
X138690001Y-16894429D01*
X138581144Y-16821857D01*
X138526715Y-16749286D01*
X138472287Y-16604143D01*
X138417858Y-16313857D01*
X138417858Y-15951000D01*
X138472287Y-15660714D01*
X138526715Y-15515571D01*
X138581144Y-15443000D01*
X138690001Y-15370429D01*
X139778572Y-15370429D02*
X139887429Y-15370429D01*
X139996286Y-15443000D01*
X140050715Y-15515571D01*
X140105144Y-15660714D01*
X140159572Y-15951000D01*
X140159572Y-16313857D01*
X140105144Y-16604143D01*
X140050715Y-16749286D01*
X139996286Y-16821857D01*
X139887429Y-16894429D01*
X139778572Y-16894429D01*
X139669715Y-16821857D01*
X139615286Y-16749286D01*
X139560858Y-16604143D01*
X139506429Y-16313857D01*
X139506429Y-15951000D01*
X139560858Y-15660714D01*
X139615286Y-15515571D01*
X139669715Y-15443000D01*
X139778572Y-15370429D01*
X140540572Y-15370429D02*
X141248143Y-15370429D01*
X140867143Y-15951000D01*
X141030429Y-15951000D01*
X141139286Y-16023571D01*
X141193715Y-16096143D01*
X141248143Y-16241286D01*
X141248143Y-16604143D01*
X141193715Y-16749286D01*
X141139286Y-16821857D01*
X141030429Y-16894429D01*
X140703857Y-16894429D01*
X140595000Y-16821857D01*
X140540572Y-16749286D01*
X141683571Y-16459000D02*
X142227857Y-16459000D01*
X141574714Y-16894429D02*
X141955714Y-15370429D01*
X142336714Y-16894429D01*
X142717714Y-16894429D02*
X142717714Y-15370429D01*
X142989857Y-15370429D01*
X143153142Y-15443000D01*
X143262000Y-15588143D01*
X143316428Y-15733286D01*
X143370857Y-16023571D01*
X143370857Y-16241286D01*
X143316428Y-16531571D01*
X143262000Y-16676714D01*
X143153142Y-16821857D01*
X142989857Y-16894429D01*
X142717714Y-16894429D01*
D11*
D23*
X144714215Y-37689429D02*
X144714215Y-36165429D01*
X145911644Y-37544286D02*
X145857215Y-37616857D01*
X145693929Y-37689429D01*
X145585072Y-37689429D01*
X145421787Y-37616857D01*
X145312929Y-37471714D01*
X145258501Y-37326571D01*
X145204072Y-37036286D01*
X145204072Y-36818571D01*
X145258501Y-36528286D01*
X145312929Y-36383143D01*
X145421787Y-36238000D01*
X145585072Y-36165429D01*
X145693929Y-36165429D01*
X145857215Y-36238000D01*
X145911644Y-36310571D01*
X146292644Y-36165429D02*
X147000215Y-36165429D01*
X146619215Y-36746000D01*
X146782501Y-36746000D01*
X146891358Y-36818571D01*
X146945787Y-36891143D01*
X147000215Y-37036286D01*
X147000215Y-37399143D01*
X146945787Y-37544286D01*
X146891358Y-37616857D01*
X146782501Y-37689429D01*
X146455929Y-37689429D01*
X146347072Y-37616857D01*
X146292644Y-37544286D01*
D11*
D23*
X134063572Y-33785429D02*
X134063572Y-35019143D01*
X134118000Y-35164286D01*
X134172429Y-35236857D01*
X134281286Y-35309429D01*
X134499000Y-35309429D01*
X134607858Y-35236857D01*
X134662286Y-35164286D01*
X134716715Y-35019143D01*
X134716715Y-33785429D01*
X135805287Y-35309429D02*
X135261001Y-35309429D01*
X135261001Y-33785429D01*
X136186287Y-35309429D02*
X136186287Y-33785429D01*
X136839430Y-35309429D01*
X136839430Y-33785429D01*
X137329287Y-33930571D02*
X137383716Y-33858000D01*
X137492573Y-33785429D01*
X137764716Y-33785429D01*
X137873573Y-33858000D01*
X137928002Y-33930571D01*
X137982430Y-34075714D01*
X137982430Y-34220857D01*
X137928002Y-34438571D01*
X137274859Y-35309429D01*
X137982430Y-35309429D01*
X138690001Y-33785429D02*
X138798858Y-33785429D01*
X138907715Y-33858000D01*
X138962144Y-33930571D01*
X139016573Y-34075714D01*
X139071001Y-34366000D01*
X139071001Y-34728857D01*
X139016573Y-35019143D01*
X138962144Y-35164286D01*
X138907715Y-35236857D01*
X138798858Y-35309429D01*
X138690001Y-35309429D01*
X138581144Y-35236857D01*
X138526715Y-35164286D01*
X138472287Y-35019143D01*
X138417858Y-34728857D01*
X138417858Y-34366000D01*
X138472287Y-34075714D01*
X138526715Y-33930571D01*
X138581144Y-33858000D01*
X138690001Y-33785429D01*
X139778572Y-33785429D02*
X139887429Y-33785429D01*
X139996286Y-33858000D01*
X140050715Y-33930571D01*
X140105144Y-34075714D01*
X140159572Y-34366000D01*
X140159572Y-34728857D01*
X140105144Y-35019143D01*
X140050715Y-35164286D01*
X139996286Y-35236857D01*
X139887429Y-35309429D01*
X139778572Y-35309429D01*
X139669715Y-35236857D01*
X139615286Y-35164286D01*
X139560858Y-35019143D01*
X139506429Y-34728857D01*
X139506429Y-34366000D01*
X139560858Y-34075714D01*
X139615286Y-33930571D01*
X139669715Y-33858000D01*
X139778572Y-33785429D01*
X140540572Y-33785429D02*
X141248143Y-33785429D01*
X140867143Y-34366000D01*
X141030429Y-34366000D01*
X141139286Y-34438571D01*
X141193715Y-34511143D01*
X141248143Y-34656286D01*
X141248143Y-35019143D01*
X141193715Y-35164286D01*
X141139286Y-35236857D01*
X141030429Y-35309429D01*
X140703857Y-35309429D01*
X140595000Y-35236857D01*
X140540572Y-35164286D01*
X141683571Y-34874000D02*
X142227857Y-34874000D01*
X141574714Y-35309429D02*
X141955714Y-33785429D01*
X142336714Y-35309429D01*
X142717714Y-35309429D02*
X142717714Y-33785429D01*
X142989857Y-33785429D01*
X143153142Y-33858000D01*
X143262000Y-34003143D01*
X143316428Y-34148286D01*
X143370857Y-34438571D01*
X143370857Y-34656286D01*
X143316428Y-34946571D01*
X143262000Y-35091714D01*
X143153142Y-35236857D01*
X142989857Y-35309429D01*
X142717714Y-35309429D01*
D11*
D23*
X144714215Y-55469429D02*
X144714215Y-53945429D01*
X145911644Y-55324286D02*
X145857215Y-55396857D01*
X145693929Y-55469429D01*
X145585072Y-55469429D01*
X145421787Y-55396857D01*
X145312929Y-55251714D01*
X145258501Y-55106571D01*
X145204072Y-54816286D01*
X145204072Y-54598571D01*
X145258501Y-54308286D01*
X145312929Y-54163143D01*
X145421787Y-54018000D01*
X145585072Y-53945429D01*
X145693929Y-53945429D01*
X145857215Y-54018000D01*
X145911644Y-54090571D01*
X146891358Y-54453429D02*
X146891358Y-55469429D01*
X146619215Y-53872857D02*
X146347072Y-54961429D01*
X147054644Y-54961429D01*
D11*
D23*
X134063572Y-51565429D02*
X134063572Y-52799143D01*
X134118000Y-52944286D01*
X134172429Y-53016857D01*
X134281286Y-53089429D01*
X134499000Y-53089429D01*
X134607858Y-53016857D01*
X134662286Y-52944286D01*
X134716715Y-52799143D01*
X134716715Y-51565429D01*
X135805287Y-53089429D02*
X135261001Y-53089429D01*
X135261001Y-51565429D01*
X136186287Y-53089429D02*
X136186287Y-51565429D01*
X136839430Y-53089429D01*
X136839430Y-51565429D01*
X137329287Y-51710571D02*
X137383716Y-51638000D01*
X137492573Y-51565429D01*
X137764716Y-51565429D01*
X137873573Y-51638000D01*
X137928002Y-51710571D01*
X137982430Y-51855714D01*
X137982430Y-52000857D01*
X137928002Y-52218571D01*
X137274859Y-53089429D01*
X137982430Y-53089429D01*
X138690001Y-51565429D02*
X138798858Y-51565429D01*
X138907715Y-51638000D01*
X138962144Y-51710571D01*
X139016573Y-51855714D01*
X139071001Y-52146000D01*
X139071001Y-52508857D01*
X139016573Y-52799143D01*
X138962144Y-52944286D01*
X138907715Y-53016857D01*
X138798858Y-53089429D01*
X138690001Y-53089429D01*
X138581144Y-53016857D01*
X138526715Y-52944286D01*
X138472287Y-52799143D01*
X138417858Y-52508857D01*
X138417858Y-52146000D01*
X138472287Y-51855714D01*
X138526715Y-51710571D01*
X138581144Y-51638000D01*
X138690001Y-51565429D01*
X139778572Y-51565429D02*
X139887429Y-51565429D01*
X139996286Y-51638000D01*
X140050715Y-51710571D01*
X140105144Y-51855714D01*
X140159572Y-52146000D01*
X140159572Y-52508857D01*
X140105144Y-52799143D01*
X140050715Y-52944286D01*
X139996286Y-53016857D01*
X139887429Y-53089429D01*
X139778572Y-53089429D01*
X139669715Y-53016857D01*
X139615286Y-52944286D01*
X139560858Y-52799143D01*
X139506429Y-52508857D01*
X139506429Y-52146000D01*
X139560858Y-51855714D01*
X139615286Y-51710571D01*
X139669715Y-51638000D01*
X139778572Y-51565429D01*
X140540572Y-51565429D02*
X141248143Y-51565429D01*
X140867143Y-52146000D01*
X141030429Y-52146000D01*
X141139286Y-52218571D01*
X141193715Y-52291143D01*
X141248143Y-52436286D01*
X141248143Y-52799143D01*
X141193715Y-52944286D01*
X141139286Y-53016857D01*
X141030429Y-53089429D01*
X140703857Y-53089429D01*
X140595000Y-53016857D01*
X140540572Y-52944286D01*
X141683571Y-52654000D02*
X142227857Y-52654000D01*
X141574714Y-53089429D02*
X141955714Y-51565429D01*
X142336714Y-53089429D01*
X142717714Y-53089429D02*
X142717714Y-51565429D01*
X142989857Y-51565429D01*
X143153142Y-51638000D01*
X143262000Y-51783143D01*
X143316428Y-51928286D01*
X143370857Y-52218571D01*
X143370857Y-52436286D01*
X143316428Y-52726571D01*
X143262000Y-52871714D01*
X143153142Y-53016857D01*
X142989857Y-53089429D01*
X142717714Y-53089429D01*
D11*
D23*
X115758215Y-1367429D02*
X115758215Y156571D01*
X116955644Y-1222286D02*
X116901215Y-1294857D01*
X116737929Y-1367429D01*
X116629072Y-1367429D01*
X116465787Y-1294857D01*
X116356929Y-1149714D01*
X116302501Y-1004571D01*
X116248072Y-714286D01*
X116248072Y-496571D01*
X116302501Y-206286D01*
X116356929Y-61143D01*
X116465787Y84000D01*
X116629072Y156571D01*
X116737929Y156571D01*
X116901215Y84000D01*
X116955644Y11429D01*
X117989787Y156571D02*
X117445501Y156571D01*
X117391072Y-569143D01*
X117445501Y-496571D01*
X117554358Y-424000D01*
X117826501Y-424000D01*
X117935358Y-496571D01*
X117989787Y-569143D01*
X118044215Y-714286D01*
X118044215Y-1077143D01*
X117989787Y-1222286D01*
X117935358Y-1294857D01*
X117826501Y-1367429D01*
X117554358Y-1367429D01*
X117445501Y-1294857D01*
X117391072Y-1222286D01*
D11*
D23*
X105107572Y2536571D02*
X105107572Y1302857D01*
X105162000Y1157714D01*
X105216429Y1085143D01*
X105325286Y1012571D01*
X105543000Y1012571D01*
X105651858Y1085143D01*
X105706286Y1157714D01*
X105760715Y1302857D01*
X105760715Y2536571D01*
X106849287Y1012571D02*
X106305001Y1012571D01*
X106305001Y2536571D01*
X107230287Y1012571D02*
X107230287Y2536571D01*
X107883430Y1012571D01*
X107883430Y2536571D01*
X108373287Y2391429D02*
X108427716Y2464000D01*
X108536573Y2536571D01*
X108808716Y2536571D01*
X108917573Y2464000D01*
X108972002Y2391429D01*
X109026430Y2246286D01*
X109026430Y2101143D01*
X108972002Y1883429D01*
X108318859Y1012571D01*
X109026430Y1012571D01*
X109734001Y2536571D02*
X109842858Y2536571D01*
X109951715Y2464000D01*
X110006144Y2391429D01*
X110060573Y2246286D01*
X110115001Y1956000D01*
X110115001Y1593143D01*
X110060573Y1302857D01*
X110006144Y1157714D01*
X109951715Y1085143D01*
X109842858Y1012571D01*
X109734001Y1012571D01*
X109625144Y1085143D01*
X109570715Y1157714D01*
X109516287Y1302857D01*
X109461858Y1593143D01*
X109461858Y1956000D01*
X109516287Y2246286D01*
X109570715Y2391429D01*
X109625144Y2464000D01*
X109734001Y2536571D01*
X110822572Y2536571D02*
X110931429Y2536571D01*
X111040286Y2464000D01*
X111094715Y2391429D01*
X111149144Y2246286D01*
X111203572Y1956000D01*
X111203572Y1593143D01*
X111149144Y1302857D01*
X111094715Y1157714D01*
X111040286Y1085143D01*
X110931429Y1012571D01*
X110822572Y1012571D01*
X110713715Y1085143D01*
X110659286Y1157714D01*
X110604858Y1302857D01*
X110550429Y1593143D01*
X110550429Y1956000D01*
X110604858Y2246286D01*
X110659286Y2391429D01*
X110713715Y2464000D01*
X110822572Y2536571D01*
X111584572Y2536571D02*
X112292143Y2536571D01*
X111911143Y1956000D01*
X112074429Y1956000D01*
X112183286Y1883429D01*
X112237715Y1810857D01*
X112292143Y1665714D01*
X112292143Y1302857D01*
X112237715Y1157714D01*
X112183286Y1085143D01*
X112074429Y1012571D01*
X111747857Y1012571D01*
X111639000Y1085143D01*
X111584572Y1157714D01*
X112727571Y1448000D02*
X113271857Y1448000D01*
X112618714Y1012571D02*
X112999714Y2536571D01*
X113380714Y1012571D01*
X113761714Y1012571D02*
X113761714Y2536571D01*
X114033857Y2536571D01*
X114197142Y2464000D01*
X114306000Y2318857D01*
X114360428Y2173714D01*
X114414857Y1883429D01*
X114414857Y1665714D01*
X114360428Y1375429D01*
X114306000Y1230286D01*
X114197142Y1085143D01*
X114033857Y1012571D01*
X113761714Y1012571D01*
D11*
D23*
X115758215Y-19147429D02*
X115758215Y-17623429D01*
X116955644Y-19002286D02*
X116901215Y-19074857D01*
X116737929Y-19147429D01*
X116629072Y-19147429D01*
X116465787Y-19074857D01*
X116356929Y-18929714D01*
X116302501Y-18784571D01*
X116248072Y-18494286D01*
X116248072Y-18276571D01*
X116302501Y-17986286D01*
X116356929Y-17841143D01*
X116465787Y-17696000D01*
X116629072Y-17623429D01*
X116737929Y-17623429D01*
X116901215Y-17696000D01*
X116955644Y-17768571D01*
X117935358Y-17623429D02*
X117717644Y-17623429D01*
X117608787Y-17696000D01*
X117554358Y-17768571D01*
X117445501Y-17986286D01*
X117391072Y-18276571D01*
X117391072Y-18857143D01*
X117445501Y-19002286D01*
X117499929Y-19074857D01*
X117608787Y-19147429D01*
X117826501Y-19147429D01*
X117935358Y-19074857D01*
X117989787Y-19002286D01*
X118044215Y-18857143D01*
X118044215Y-18494286D01*
X117989787Y-18349143D01*
X117935358Y-18276571D01*
X117826501Y-18204000D01*
X117608787Y-18204000D01*
X117499929Y-18276571D01*
X117445501Y-18349143D01*
X117391072Y-18494286D01*
D11*
D23*
X105107572Y-15243429D02*
X105107572Y-16477143D01*
X105162000Y-16622286D01*
X105216429Y-16694857D01*
X105325286Y-16767429D01*
X105543000Y-16767429D01*
X105651858Y-16694857D01*
X105706286Y-16622286D01*
X105760715Y-16477143D01*
X105760715Y-15243429D01*
X106849287Y-16767429D02*
X106305001Y-16767429D01*
X106305001Y-15243429D01*
X107230287Y-16767429D02*
X107230287Y-15243429D01*
X107883430Y-16767429D01*
X107883430Y-15243429D01*
X108373287Y-15388571D02*
X108427716Y-15316000D01*
X108536573Y-15243429D01*
X108808716Y-15243429D01*
X108917573Y-15316000D01*
X108972002Y-15388571D01*
X109026430Y-15533714D01*
X109026430Y-15678857D01*
X108972002Y-15896571D01*
X108318859Y-16767429D01*
X109026430Y-16767429D01*
X109734001Y-15243429D02*
X109842858Y-15243429D01*
X109951715Y-15316000D01*
X110006144Y-15388571D01*
X110060573Y-15533714D01*
X110115001Y-15824000D01*
X110115001Y-16186857D01*
X110060573Y-16477143D01*
X110006144Y-16622286D01*
X109951715Y-16694857D01*
X109842858Y-16767429D01*
X109734001Y-16767429D01*
X109625144Y-16694857D01*
X109570715Y-16622286D01*
X109516287Y-16477143D01*
X109461858Y-16186857D01*
X109461858Y-15824000D01*
X109516287Y-15533714D01*
X109570715Y-15388571D01*
X109625144Y-15316000D01*
X109734001Y-15243429D01*
X110822572Y-15243429D02*
X110931429Y-15243429D01*
X111040286Y-15316000D01*
X111094715Y-15388571D01*
X111149144Y-15533714D01*
X111203572Y-15824000D01*
X111203572Y-16186857D01*
X111149144Y-16477143D01*
X111094715Y-16622286D01*
X111040286Y-16694857D01*
X110931429Y-16767429D01*
X110822572Y-16767429D01*
X110713715Y-16694857D01*
X110659286Y-16622286D01*
X110604858Y-16477143D01*
X110550429Y-16186857D01*
X110550429Y-15824000D01*
X110604858Y-15533714D01*
X110659286Y-15388571D01*
X110713715Y-15316000D01*
X110822572Y-15243429D01*
X111584572Y-15243429D02*
X112292143Y-15243429D01*
X111911143Y-15824000D01*
X112074429Y-15824000D01*
X112183286Y-15896571D01*
X112237715Y-15969143D01*
X112292143Y-16114286D01*
X112292143Y-16477143D01*
X112237715Y-16622286D01*
X112183286Y-16694857D01*
X112074429Y-16767429D01*
X111747857Y-16767429D01*
X111639000Y-16694857D01*
X111584572Y-16622286D01*
X112727571Y-16332000D02*
X113271857Y-16332000D01*
X112618714Y-16767429D02*
X112999714Y-15243429D01*
X113380714Y-16767429D01*
X113761714Y-16767429D02*
X113761714Y-15243429D01*
X114033857Y-15243429D01*
X114197142Y-15316000D01*
X114306000Y-15461143D01*
X114360428Y-15606286D01*
X114414857Y-15896571D01*
X114414857Y-16114286D01*
X114360428Y-16404571D01*
X114306000Y-16549714D01*
X114197142Y-16694857D01*
X114033857Y-16767429D01*
X113761714Y-16767429D01*
D11*
D23*
X115758215Y-37562429D02*
X115758215Y-36038429D01*
X116955644Y-37417286D02*
X116901215Y-37489857D01*
X116737929Y-37562429D01*
X116629072Y-37562429D01*
X116465787Y-37489857D01*
X116356929Y-37344714D01*
X116302501Y-37199571D01*
X116248072Y-36909286D01*
X116248072Y-36691571D01*
X116302501Y-36401286D01*
X116356929Y-36256143D01*
X116465787Y-36111000D01*
X116629072Y-36038429D01*
X116737929Y-36038429D01*
X116901215Y-36111000D01*
X116955644Y-36183571D01*
X117336644Y-36038429D02*
X118098644Y-36038429D01*
X117608787Y-37562429D01*
D11*
D23*
X105107572Y-33658429D02*
X105107572Y-34892143D01*
X105162000Y-35037286D01*
X105216429Y-35109857D01*
X105325286Y-35182429D01*
X105543000Y-35182429D01*
X105651858Y-35109857D01*
X105706286Y-35037286D01*
X105760715Y-34892143D01*
X105760715Y-33658429D01*
X106849287Y-35182429D02*
X106305001Y-35182429D01*
X106305001Y-33658429D01*
X107230287Y-35182429D02*
X107230287Y-33658429D01*
X107883430Y-35182429D01*
X107883430Y-33658429D01*
X108373287Y-33803571D02*
X108427716Y-33731000D01*
X108536573Y-33658429D01*
X108808716Y-33658429D01*
X108917573Y-33731000D01*
X108972002Y-33803571D01*
X109026430Y-33948714D01*
X109026430Y-34093857D01*
X108972002Y-34311571D01*
X108318859Y-35182429D01*
X109026430Y-35182429D01*
X109734001Y-33658429D02*
X109842858Y-33658429D01*
X109951715Y-33731000D01*
X110006144Y-33803571D01*
X110060573Y-33948714D01*
X110115001Y-34239000D01*
X110115001Y-34601857D01*
X110060573Y-34892143D01*
X110006144Y-35037286D01*
X109951715Y-35109857D01*
X109842858Y-35182429D01*
X109734001Y-35182429D01*
X109625144Y-35109857D01*
X109570715Y-35037286D01*
X109516287Y-34892143D01*
X109461858Y-34601857D01*
X109461858Y-34239000D01*
X109516287Y-33948714D01*
X109570715Y-33803571D01*
X109625144Y-33731000D01*
X109734001Y-33658429D01*
X110822572Y-33658429D02*
X110931429Y-33658429D01*
X111040286Y-33731000D01*
X111094715Y-33803571D01*
X111149144Y-33948714D01*
X111203572Y-34239000D01*
X111203572Y-34601857D01*
X111149144Y-34892143D01*
X111094715Y-35037286D01*
X111040286Y-35109857D01*
X110931429Y-35182429D01*
X110822572Y-35182429D01*
X110713715Y-35109857D01*
X110659286Y-35037286D01*
X110604858Y-34892143D01*
X110550429Y-34601857D01*
X110550429Y-34239000D01*
X110604858Y-33948714D01*
X110659286Y-33803571D01*
X110713715Y-33731000D01*
X110822572Y-33658429D01*
X111584572Y-33658429D02*
X112292143Y-33658429D01*
X111911143Y-34239000D01*
X112074429Y-34239000D01*
X112183286Y-34311571D01*
X112237715Y-34384143D01*
X112292143Y-34529286D01*
X112292143Y-34892143D01*
X112237715Y-35037286D01*
X112183286Y-35109857D01*
X112074429Y-35182429D01*
X111747857Y-35182429D01*
X111639000Y-35109857D01*
X111584572Y-35037286D01*
X112727571Y-34747000D02*
X113271857Y-34747000D01*
X112618714Y-35182429D02*
X112999714Y-33658429D01*
X113380714Y-35182429D01*
X113761714Y-35182429D02*
X113761714Y-33658429D01*
X114033857Y-33658429D01*
X114197142Y-33731000D01*
X114306000Y-33876143D01*
X114360428Y-34021286D01*
X114414857Y-34311571D01*
X114414857Y-34529286D01*
X114360428Y-34819571D01*
X114306000Y-34964714D01*
X114197142Y-35109857D01*
X114033857Y-35182429D01*
X113761714Y-35182429D01*
D11*
D23*
X115758215Y-55977429D02*
X115758215Y-54453429D01*
X116955644Y-55832286D02*
X116901215Y-55904857D01*
X116737929Y-55977429D01*
X116629072Y-55977429D01*
X116465787Y-55904857D01*
X116356929Y-55759714D01*
X116302501Y-55614571D01*
X116248072Y-55324286D01*
X116248072Y-55106571D01*
X116302501Y-54816286D01*
X116356929Y-54671143D01*
X116465787Y-54526000D01*
X116629072Y-54453429D01*
X116737929Y-54453429D01*
X116901215Y-54526000D01*
X116955644Y-54598571D01*
X117608787Y-55106571D02*
X117499929Y-55034000D01*
X117445501Y-54961429D01*
X117391072Y-54816286D01*
X117391072Y-54743714D01*
X117445501Y-54598571D01*
X117499929Y-54526000D01*
X117608787Y-54453429D01*
X117826501Y-54453429D01*
X117935358Y-54526000D01*
X117989787Y-54598571D01*
X118044215Y-54743714D01*
X118044215Y-54816286D01*
X117989787Y-54961429D01*
X117935358Y-55034000D01*
X117826501Y-55106571D01*
X117608787Y-55106571D01*
X117499929Y-55179143D01*
X117445501Y-55251714D01*
X117391072Y-55396857D01*
X117391072Y-55687143D01*
X117445501Y-55832286D01*
X117499929Y-55904857D01*
X117608787Y-55977429D01*
X117826501Y-55977429D01*
X117935358Y-55904857D01*
X117989787Y-55832286D01*
X118044215Y-55687143D01*
X118044215Y-55396857D01*
X117989787Y-55251714D01*
X117935358Y-55179143D01*
X117826501Y-55106571D01*
D11*
D23*
X105107572Y-52073429D02*
X105107572Y-53307143D01*
X105162000Y-53452286D01*
X105216429Y-53524857D01*
X105325286Y-53597429D01*
X105543000Y-53597429D01*
X105651858Y-53524857D01*
X105706286Y-53452286D01*
X105760715Y-53307143D01*
X105760715Y-52073429D01*
X106849287Y-53597429D02*
X106305001Y-53597429D01*
X106305001Y-52073429D01*
X107230287Y-53597429D02*
X107230287Y-52073429D01*
X107883430Y-53597429D01*
X107883430Y-52073429D01*
X108373287Y-52218571D02*
X108427716Y-52146000D01*
X108536573Y-52073429D01*
X108808716Y-52073429D01*
X108917573Y-52146000D01*
X108972002Y-52218571D01*
X109026430Y-52363714D01*
X109026430Y-52508857D01*
X108972002Y-52726571D01*
X108318859Y-53597429D01*
X109026430Y-53597429D01*
X109734001Y-52073429D02*
X109842858Y-52073429D01*
X109951715Y-52146000D01*
X110006144Y-52218571D01*
X110060573Y-52363714D01*
X110115001Y-52654000D01*
X110115001Y-53016857D01*
X110060573Y-53307143D01*
X110006144Y-53452286D01*
X109951715Y-53524857D01*
X109842858Y-53597429D01*
X109734001Y-53597429D01*
X109625144Y-53524857D01*
X109570715Y-53452286D01*
X109516287Y-53307143D01*
X109461858Y-53016857D01*
X109461858Y-52654000D01*
X109516287Y-52363714D01*
X109570715Y-52218571D01*
X109625144Y-52146000D01*
X109734001Y-52073429D01*
X110822572Y-52073429D02*
X110931429Y-52073429D01*
X111040286Y-52146000D01*
X111094715Y-52218571D01*
X111149144Y-52363714D01*
X111203572Y-52654000D01*
X111203572Y-53016857D01*
X111149144Y-53307143D01*
X111094715Y-53452286D01*
X111040286Y-53524857D01*
X110931429Y-53597429D01*
X110822572Y-53597429D01*
X110713715Y-53524857D01*
X110659286Y-53452286D01*
X110604858Y-53307143D01*
X110550429Y-53016857D01*
X110550429Y-52654000D01*
X110604858Y-52363714D01*
X110659286Y-52218571D01*
X110713715Y-52146000D01*
X110822572Y-52073429D01*
X111584572Y-52073429D02*
X112292143Y-52073429D01*
X111911143Y-52654000D01*
X112074429Y-52654000D01*
X112183286Y-52726571D01*
X112237715Y-52799143D01*
X112292143Y-52944286D01*
X112292143Y-53307143D01*
X112237715Y-53452286D01*
X112183286Y-53524857D01*
X112074429Y-53597429D01*
X111747857Y-53597429D01*
X111639000Y-53524857D01*
X111584572Y-53452286D01*
X112727571Y-53162000D02*
X113271857Y-53162000D01*
X112618714Y-53597429D02*
X112999714Y-52073429D01*
X113380714Y-53597429D01*
X113761714Y-53597429D02*
X113761714Y-52073429D01*
X114033857Y-52073429D01*
X114197142Y-52146000D01*
X114306000Y-52291143D01*
X114360428Y-52436286D01*
X114414857Y-52726571D01*
X114414857Y-52944286D01*
X114360428Y-53234571D01*
X114306000Y-53379714D01*
X114197142Y-53524857D01*
X114033857Y-53597429D01*
X113761714Y-53597429D01*
D11*
D23*
X86548215Y-1367429D02*
X86548215Y156571D01*
X87745644Y-1222286D02*
X87691215Y-1294857D01*
X87527929Y-1367429D01*
X87419072Y-1367429D01*
X87255787Y-1294857D01*
X87146929Y-1149714D01*
X87092501Y-1004571D01*
X87038072Y-714286D01*
X87038072Y-496571D01*
X87092501Y-206286D01*
X87146929Y-61143D01*
X87255787Y84000D01*
X87419072Y156571D01*
X87527929Y156571D01*
X87691215Y84000D01*
X87745644Y11429D01*
X88289929Y-1367429D02*
X88507644Y-1367429D01*
X88616501Y-1294857D01*
X88670929Y-1222286D01*
X88779787Y-1004571D01*
X88834215Y-714286D01*
X88834215Y-133714D01*
X88779787Y11429D01*
X88725358Y84000D01*
X88616501Y156571D01*
X88398787Y156571D01*
X88289929Y84000D01*
X88235501Y11429D01*
X88181072Y-133714D01*
X88181072Y-496571D01*
X88235501Y-641714D01*
X88289929Y-714286D01*
X88398787Y-786857D01*
X88616501Y-786857D01*
X88725358Y-714286D01*
X88779787Y-641714D01*
X88834215Y-496571D01*
D11*
D23*
X75897572Y2536571D02*
X75897572Y1302857D01*
X75952000Y1157714D01*
X76006429Y1085143D01*
X76115286Y1012571D01*
X76333000Y1012571D01*
X76441858Y1085143D01*
X76496286Y1157714D01*
X76550715Y1302857D01*
X76550715Y2536571D01*
X77639287Y1012571D02*
X77095001Y1012571D01*
X77095001Y2536571D01*
X78020287Y1012571D02*
X78020287Y2536571D01*
X78673430Y1012571D01*
X78673430Y2536571D01*
X79163287Y2391429D02*
X79217716Y2464000D01*
X79326573Y2536571D01*
X79598716Y2536571D01*
X79707573Y2464000D01*
X79762002Y2391429D01*
X79816430Y2246286D01*
X79816430Y2101143D01*
X79762002Y1883429D01*
X79108859Y1012571D01*
X79816430Y1012571D01*
X80524001Y2536571D02*
X80632858Y2536571D01*
X80741715Y2464000D01*
X80796144Y2391429D01*
X80850573Y2246286D01*
X80905001Y1956000D01*
X80905001Y1593143D01*
X80850573Y1302857D01*
X80796144Y1157714D01*
X80741715Y1085143D01*
X80632858Y1012571D01*
X80524001Y1012571D01*
X80415144Y1085143D01*
X80360715Y1157714D01*
X80306287Y1302857D01*
X80251858Y1593143D01*
X80251858Y1956000D01*
X80306287Y2246286D01*
X80360715Y2391429D01*
X80415144Y2464000D01*
X80524001Y2536571D01*
X81612572Y2536571D02*
X81721429Y2536571D01*
X81830286Y2464000D01*
X81884715Y2391429D01*
X81939144Y2246286D01*
X81993572Y1956000D01*
X81993572Y1593143D01*
X81939144Y1302857D01*
X81884715Y1157714D01*
X81830286Y1085143D01*
X81721429Y1012571D01*
X81612572Y1012571D01*
X81503715Y1085143D01*
X81449286Y1157714D01*
X81394858Y1302857D01*
X81340429Y1593143D01*
X81340429Y1956000D01*
X81394858Y2246286D01*
X81449286Y2391429D01*
X81503715Y2464000D01*
X81612572Y2536571D01*
X82374572Y2536571D02*
X83082143Y2536571D01*
X82701143Y1956000D01*
X82864429Y1956000D01*
X82973286Y1883429D01*
X83027715Y1810857D01*
X83082143Y1665714D01*
X83082143Y1302857D01*
X83027715Y1157714D01*
X82973286Y1085143D01*
X82864429Y1012571D01*
X82537857Y1012571D01*
X82429000Y1085143D01*
X82374572Y1157714D01*
X83517571Y1448000D02*
X84061857Y1448000D01*
X83408714Y1012571D02*
X83789714Y2536571D01*
X84170714Y1012571D01*
X84551714Y1012571D02*
X84551714Y2536571D01*
X84823857Y2536571D01*
X84987142Y2464000D01*
X85096000Y2318857D01*
X85150428Y2173714D01*
X85204857Y1883429D01*
X85204857Y1665714D01*
X85150428Y1375429D01*
X85096000Y1230286D01*
X84987142Y1085143D01*
X84823857Y1012571D01*
X84551714Y1012571D01*
D11*
D23*
X86003929Y-19147429D02*
X86003929Y-17623429D01*
X87201358Y-19002286D02*
X87146929Y-19074857D01*
X86983643Y-19147429D01*
X86874786Y-19147429D01*
X86711501Y-19074857D01*
X86602643Y-18929714D01*
X86548215Y-18784571D01*
X86493786Y-18494286D01*
X86493786Y-18276571D01*
X86548215Y-17986286D01*
X86602643Y-17841143D01*
X86711501Y-17696000D01*
X86874786Y-17623429D01*
X86983643Y-17623429D01*
X87146929Y-17696000D01*
X87201358Y-17768571D01*
X88289929Y-19147429D02*
X87636786Y-19147429D01*
X87963358Y-19147429D02*
X87963358Y-17623429D01*
X87854501Y-17841143D01*
X87745643Y-17986286D01*
X87636786Y-18058857D01*
X88997500Y-17623429D02*
X89106357Y-17623429D01*
X89215214Y-17696000D01*
X89269643Y-17768571D01*
X89324072Y-17913714D01*
X89378500Y-18204000D01*
X89378500Y-18566857D01*
X89324072Y-18857143D01*
X89269643Y-19002286D01*
X89215214Y-19074857D01*
X89106357Y-19147429D01*
X88997500Y-19147429D01*
X88888643Y-19074857D01*
X88834214Y-19002286D01*
X88779786Y-18857143D01*
X88725357Y-18566857D01*
X88725357Y-18204000D01*
X88779786Y-17913714D01*
X88834214Y-17768571D01*
X88888643Y-17696000D01*
X88997500Y-17623429D01*
D11*
D23*
X75897572Y-15243429D02*
X75897572Y-16477143D01*
X75952000Y-16622286D01*
X76006429Y-16694857D01*
X76115286Y-16767429D01*
X76333000Y-16767429D01*
X76441858Y-16694857D01*
X76496286Y-16622286D01*
X76550715Y-16477143D01*
X76550715Y-15243429D01*
X77639287Y-16767429D02*
X77095001Y-16767429D01*
X77095001Y-15243429D01*
X78020287Y-16767429D02*
X78020287Y-15243429D01*
X78673430Y-16767429D01*
X78673430Y-15243429D01*
X79163287Y-15388571D02*
X79217716Y-15316000D01*
X79326573Y-15243429D01*
X79598716Y-15243429D01*
X79707573Y-15316000D01*
X79762002Y-15388571D01*
X79816430Y-15533714D01*
X79816430Y-15678857D01*
X79762002Y-15896571D01*
X79108859Y-16767429D01*
X79816430Y-16767429D01*
X80524001Y-15243429D02*
X80632858Y-15243429D01*
X80741715Y-15316000D01*
X80796144Y-15388571D01*
X80850573Y-15533714D01*
X80905001Y-15824000D01*
X80905001Y-16186857D01*
X80850573Y-16477143D01*
X80796144Y-16622286D01*
X80741715Y-16694857D01*
X80632858Y-16767429D01*
X80524001Y-16767429D01*
X80415144Y-16694857D01*
X80360715Y-16622286D01*
X80306287Y-16477143D01*
X80251858Y-16186857D01*
X80251858Y-15824000D01*
X80306287Y-15533714D01*
X80360715Y-15388571D01*
X80415144Y-15316000D01*
X80524001Y-15243429D01*
X81612572Y-15243429D02*
X81721429Y-15243429D01*
X81830286Y-15316000D01*
X81884715Y-15388571D01*
X81939144Y-15533714D01*
X81993572Y-15824000D01*
X81993572Y-16186857D01*
X81939144Y-16477143D01*
X81884715Y-16622286D01*
X81830286Y-16694857D01*
X81721429Y-16767429D01*
X81612572Y-16767429D01*
X81503715Y-16694857D01*
X81449286Y-16622286D01*
X81394858Y-16477143D01*
X81340429Y-16186857D01*
X81340429Y-15824000D01*
X81394858Y-15533714D01*
X81449286Y-15388571D01*
X81503715Y-15316000D01*
X81612572Y-15243429D01*
X82374572Y-15243429D02*
X83082143Y-15243429D01*
X82701143Y-15824000D01*
X82864429Y-15824000D01*
X82973286Y-15896571D01*
X83027715Y-15969143D01*
X83082143Y-16114286D01*
X83082143Y-16477143D01*
X83027715Y-16622286D01*
X82973286Y-16694857D01*
X82864429Y-16767429D01*
X82537857Y-16767429D01*
X82429000Y-16694857D01*
X82374572Y-16622286D01*
X83517571Y-16332000D02*
X84061857Y-16332000D01*
X83408714Y-16767429D02*
X83789714Y-15243429D01*
X84170714Y-16767429D01*
X84551714Y-16767429D02*
X84551714Y-15243429D01*
X84823857Y-15243429D01*
X84987142Y-15316000D01*
X85096000Y-15461143D01*
X85150428Y-15606286D01*
X85204857Y-15896571D01*
X85204857Y-16114286D01*
X85150428Y-16404571D01*
X85096000Y-16549714D01*
X84987142Y-16694857D01*
X84823857Y-16767429D01*
X84551714Y-16767429D01*
D11*
D23*
X86003929Y-37562429D02*
X86003929Y-36038429D01*
X87201358Y-37417286D02*
X87146929Y-37489857D01*
X86983643Y-37562429D01*
X86874786Y-37562429D01*
X86711501Y-37489857D01*
X86602643Y-37344714D01*
X86548215Y-37199571D01*
X86493786Y-36909286D01*
X86493786Y-36691571D01*
X86548215Y-36401286D01*
X86602643Y-36256143D01*
X86711501Y-36111000D01*
X86874786Y-36038429D01*
X86983643Y-36038429D01*
X87146929Y-36111000D01*
X87201358Y-36183571D01*
X88289929Y-37562429D02*
X87636786Y-37562429D01*
X87963358Y-37562429D02*
X87963358Y-36038429D01*
X87854501Y-36256143D01*
X87745643Y-36401286D01*
X87636786Y-36473857D01*
X89378500Y-37562429D02*
X88725357Y-37562429D01*
X89051929Y-37562429D02*
X89051929Y-36038429D01*
X88943072Y-36256143D01*
X88834214Y-36401286D01*
X88725357Y-36473857D01*
D11*
D23*
X75897572Y-33658429D02*
X75897572Y-34892143D01*
X75952000Y-35037286D01*
X76006429Y-35109857D01*
X76115286Y-35182429D01*
X76333000Y-35182429D01*
X76441858Y-35109857D01*
X76496286Y-35037286D01*
X76550715Y-34892143D01*
X76550715Y-33658429D01*
X77639287Y-35182429D02*
X77095001Y-35182429D01*
X77095001Y-33658429D01*
X78020287Y-35182429D02*
X78020287Y-33658429D01*
X78673430Y-35182429D01*
X78673430Y-33658429D01*
X79163287Y-33803571D02*
X79217716Y-33731000D01*
X79326573Y-33658429D01*
X79598716Y-33658429D01*
X79707573Y-33731000D01*
X79762002Y-33803571D01*
X79816430Y-33948714D01*
X79816430Y-34093857D01*
X79762002Y-34311571D01*
X79108859Y-35182429D01*
X79816430Y-35182429D01*
X80524001Y-33658429D02*
X80632858Y-33658429D01*
X80741715Y-33731000D01*
X80796144Y-33803571D01*
X80850573Y-33948714D01*
X80905001Y-34239000D01*
X80905001Y-34601857D01*
X80850573Y-34892143D01*
X80796144Y-35037286D01*
X80741715Y-35109857D01*
X80632858Y-35182429D01*
X80524001Y-35182429D01*
X80415144Y-35109857D01*
X80360715Y-35037286D01*
X80306287Y-34892143D01*
X80251858Y-34601857D01*
X80251858Y-34239000D01*
X80306287Y-33948714D01*
X80360715Y-33803571D01*
X80415144Y-33731000D01*
X80524001Y-33658429D01*
X81612572Y-33658429D02*
X81721429Y-33658429D01*
X81830286Y-33731000D01*
X81884715Y-33803571D01*
X81939144Y-33948714D01*
X81993572Y-34239000D01*
X81993572Y-34601857D01*
X81939144Y-34892143D01*
X81884715Y-35037286D01*
X81830286Y-35109857D01*
X81721429Y-35182429D01*
X81612572Y-35182429D01*
X81503715Y-35109857D01*
X81449286Y-35037286D01*
X81394858Y-34892143D01*
X81340429Y-34601857D01*
X81340429Y-34239000D01*
X81394858Y-33948714D01*
X81449286Y-33803571D01*
X81503715Y-33731000D01*
X81612572Y-33658429D01*
X82374572Y-33658429D02*
X83082143Y-33658429D01*
X82701143Y-34239000D01*
X82864429Y-34239000D01*
X82973286Y-34311571D01*
X83027715Y-34384143D01*
X83082143Y-34529286D01*
X83082143Y-34892143D01*
X83027715Y-35037286D01*
X82973286Y-35109857D01*
X82864429Y-35182429D01*
X82537857Y-35182429D01*
X82429000Y-35109857D01*
X82374572Y-35037286D01*
X83517571Y-34747000D02*
X84061857Y-34747000D01*
X83408714Y-35182429D02*
X83789714Y-33658429D01*
X84170714Y-35182429D01*
X84551714Y-35182429D02*
X84551714Y-33658429D01*
X84823857Y-33658429D01*
X84987142Y-33731000D01*
X85096000Y-33876143D01*
X85150428Y-34021286D01*
X85204857Y-34311571D01*
X85204857Y-34529286D01*
X85150428Y-34819571D01*
X85096000Y-34964714D01*
X84987142Y-35109857D01*
X84823857Y-35182429D01*
X84551714Y-35182429D01*
D11*
D23*
X86003929Y-55977429D02*
X86003929Y-54453429D01*
X87201358Y-55832286D02*
X87146929Y-55904857D01*
X86983643Y-55977429D01*
X86874786Y-55977429D01*
X86711501Y-55904857D01*
X86602643Y-55759714D01*
X86548215Y-55614571D01*
X86493786Y-55324286D01*
X86493786Y-55106571D01*
X86548215Y-54816286D01*
X86602643Y-54671143D01*
X86711501Y-54526000D01*
X86874786Y-54453429D01*
X86983643Y-54453429D01*
X87146929Y-54526000D01*
X87201358Y-54598571D01*
X88289929Y-55977429D02*
X87636786Y-55977429D01*
X87963358Y-55977429D02*
X87963358Y-54453429D01*
X87854501Y-54671143D01*
X87745643Y-54816286D01*
X87636786Y-54888857D01*
X88725357Y-54598571D02*
X88779786Y-54526000D01*
X88888643Y-54453429D01*
X89160786Y-54453429D01*
X89269643Y-54526000D01*
X89324072Y-54598571D01*
X89378500Y-54743714D01*
X89378500Y-54888857D01*
X89324072Y-55106571D01*
X88670929Y-55977429D01*
X89378500Y-55977429D01*
D11*
D23*
X75897572Y-52073429D02*
X75897572Y-53307143D01*
X75952000Y-53452286D01*
X76006429Y-53524857D01*
X76115286Y-53597429D01*
X76333000Y-53597429D01*
X76441858Y-53524857D01*
X76496286Y-53452286D01*
X76550715Y-53307143D01*
X76550715Y-52073429D01*
X77639287Y-53597429D02*
X77095001Y-53597429D01*
X77095001Y-52073429D01*
X78020287Y-53597429D02*
X78020287Y-52073429D01*
X78673430Y-53597429D01*
X78673430Y-52073429D01*
X79163287Y-52218571D02*
X79217716Y-52146000D01*
X79326573Y-52073429D01*
X79598716Y-52073429D01*
X79707573Y-52146000D01*
X79762002Y-52218571D01*
X79816430Y-52363714D01*
X79816430Y-52508857D01*
X79762002Y-52726571D01*
X79108859Y-53597429D01*
X79816430Y-53597429D01*
X80524001Y-52073429D02*
X80632858Y-52073429D01*
X80741715Y-52146000D01*
X80796144Y-52218571D01*
X80850573Y-52363714D01*
X80905001Y-52654000D01*
X80905001Y-53016857D01*
X80850573Y-53307143D01*
X80796144Y-53452286D01*
X80741715Y-53524857D01*
X80632858Y-53597429D01*
X80524001Y-53597429D01*
X80415144Y-53524857D01*
X80360715Y-53452286D01*
X80306287Y-53307143D01*
X80251858Y-53016857D01*
X80251858Y-52654000D01*
X80306287Y-52363714D01*
X80360715Y-52218571D01*
X80415144Y-52146000D01*
X80524001Y-52073429D01*
X81612572Y-52073429D02*
X81721429Y-52073429D01*
X81830286Y-52146000D01*
X81884715Y-52218571D01*
X81939144Y-52363714D01*
X81993572Y-52654000D01*
X81993572Y-53016857D01*
X81939144Y-53307143D01*
X81884715Y-53452286D01*
X81830286Y-53524857D01*
X81721429Y-53597429D01*
X81612572Y-53597429D01*
X81503715Y-53524857D01*
X81449286Y-53452286D01*
X81394858Y-53307143D01*
X81340429Y-53016857D01*
X81340429Y-52654000D01*
X81394858Y-52363714D01*
X81449286Y-52218571D01*
X81503715Y-52146000D01*
X81612572Y-52073429D01*
X82374572Y-52073429D02*
X83082143Y-52073429D01*
X82701143Y-52654000D01*
X82864429Y-52654000D01*
X82973286Y-52726571D01*
X83027715Y-52799143D01*
X83082143Y-52944286D01*
X83082143Y-53307143D01*
X83027715Y-53452286D01*
X82973286Y-53524857D01*
X82864429Y-53597429D01*
X82537857Y-53597429D01*
X82429000Y-53524857D01*
X82374572Y-53452286D01*
X83517571Y-53162000D02*
X84061857Y-53162000D01*
X83408714Y-53597429D02*
X83789714Y-52073429D01*
X84170714Y-53597429D01*
X84551714Y-53597429D02*
X84551714Y-52073429D01*
X84823857Y-52073429D01*
X84987142Y-52146000D01*
X85096000Y-52291143D01*
X85150428Y-52436286D01*
X85204857Y-52726571D01*
X85204857Y-52944286D01*
X85150428Y-53234571D01*
X85096000Y-53379714D01*
X84987142Y-53524857D01*
X84823857Y-53597429D01*
X84551714Y-53597429D01*
D11*
D22*
X113757602Y44607499D02*
X113757602Y46337239D01*
X114171743Y46337239D01*
X114275278Y46254870D01*
X114327046Y46172501D01*
X114378814Y46007764D01*
X114378814Y45760659D01*
X114327046Y45595921D01*
X114275278Y45513553D01*
X114171743Y45431184D01*
X113757602Y45431184D01*
X114792954Y46172501D02*
X114844722Y46254870D01*
X114948257Y46337239D01*
X115207095Y46337239D01*
X115310631Y46254870D01*
X115362398Y46172501D01*
X115414166Y46007764D01*
X115414166Y45843027D01*
X115362398Y45595921D01*
X114741187Y44607499D01*
X115414166Y44607499D01*
X106137602Y44607499D02*
X106137602Y46337239D01*
X106551743Y46337239D01*
X106655278Y46254870D01*
X106707046Y46172501D01*
X106758814Y46007764D01*
X106758814Y45760659D01*
X106707046Y45595921D01*
X106655278Y45513553D01*
X106551743Y45431184D01*
X106137602Y45431184D01*
X107121187Y46337239D02*
X107794166Y46337239D01*
X107431793Y45678290D01*
X107587095Y45678290D01*
X107690631Y45595921D01*
X107742398Y45513553D01*
X107794166Y45348816D01*
X107794166Y44936973D01*
X107742398Y44772236D01*
X107690631Y44689867D01*
X107587095Y44607499D01*
X107276490Y44607499D01*
X107172954Y44689867D01*
X107121187Y44772236D01*
D20*
X89311976Y37083333D02*
X88646738Y36660000D01*
X89311976Y36357619D02*
X87914976Y36357619D01*
X87914976Y36841428D01*
X87981500Y36962381D01*
X88048024Y37022857D01*
X88181071Y37083333D01*
X88380643Y37083333D01*
X88513690Y37022857D01*
X88580214Y36962381D01*
X88646738Y36841428D01*
X88646738Y36357619D01*
X88048024Y37567143D02*
X87981500Y37627619D01*
X87914976Y37748571D01*
X87914976Y38050952D01*
X87981500Y38171905D01*
X88048024Y38232381D01*
X88181071Y38292857D01*
X88314119Y38292857D01*
X88513690Y38232381D01*
X89311976Y37506667D01*
X89311976Y38292857D01*
X91851976Y25653333D02*
X91186738Y25230000D01*
X91851976Y24927619D02*
X90454976Y24927619D01*
X90454976Y25411428D01*
X90521500Y25532381D01*
X90588024Y25592857D01*
X90721071Y25653333D01*
X90920643Y25653333D01*
X91053690Y25592857D01*
X91120214Y25532381D01*
X91186738Y25411428D01*
X91186738Y24927619D01*
X90920643Y26741905D02*
X91851976Y26741905D01*
X90388452Y26439524D02*
X91386310Y26137143D01*
X91386310Y26923333D01*
X89139619Y25115096D02*
X88123619Y25115096D01*
X88123619Y25357001D01*
X88172000Y25502143D01*
X88268762Y25598905D01*
X88365524Y25647286D01*
X88559048Y25695667D01*
X88704190Y25695667D01*
X88897714Y25647286D01*
X88994476Y25598905D01*
X89091238Y25502143D01*
X89139619Y25357001D01*
X89139619Y25115096D01*
X88462286Y26566524D02*
X89139619Y26566524D01*
X88075238Y26324620D02*
X88800952Y26082715D01*
X88800952Y26711667D01*
M02*
